<svg version="1.1" xmlns="http://www.w3.org/2000/svg" viewBox="-3.3186127364304907 -5.172498366571159 6.564079813904213 10.272161272960261" fill="none" stroke="black" stroke-width="0.6%" vector-effect="non-scaling-stroke">
    <path d="M -2.31861 -0.39923 L -2.31861 2.42764 L -2.21634 2.43459" />
    <path d="M -2.21634 0.36155 L -2.21634 2.43459" />
    <path d="M -2.21634 0.36155 C -2.22 0.36 -2.22 0.35 -2.21578 0.34494 C -2.22 0.34 -2.21 0.33 -2.21412 0.32846 C -2.21 0.32 -2.21 0.32 -2.21134 0.31217 C -2.21 0.31 -2.21 0.3 -2.20746 0.29613 C -2.21 0.29 -2.2 0.29 -2.20251 0.28041 C -2.2 0.28 -2.2 0.27 -2.19648 0.26504 C -2.19 0.26 -2.19 0.26 -2.1894 0.2501 C -2.19 0.25 -2.18 0.24 -2.1813 0.23562 C -2.18 0.23 -2.18 0.23 -2.17221 0.22167 C -2.17 0.22 -2.17 0.21 -2.16214 0.20829 C -2.16 0.2 -2.15 0.2 -2.15114 0.19553 C -2.15 0.19 -2.14 0.19 -2.13924 0.18342 C -2.14 0.18 -2.13 0.18 -2.12649 0.17202 C -2.12 0.17 -2.12 0.16 -2.11291 0.16135 C -2.11 0.16 -2.1 0.15 -2.09856 0.15146 C -2.09 0.15 -2.09 0.15 -2.08347 0.14237 L -2.07361 0.1561" />
    <path d="M -2.07361 -0.38257 L -2.07361 0.1561" />
    <path d="M -2.31861 -0.39923 L -2.07361 -0.38257" />
    <path d="M -0.03059 -4.1725 L -2.31861 -0.39923" />
    <path d="M -1.99678 0.52372 L -1.8925 0.72902 L -1.7733 0.94473 L -1.64117 1.16725 L -1.49829 1.39289 L -1.34705 1.61792 L -1.18996 1.8386 L -1.02961 2.05125 L -0.86867 2.25237 L -0.70982 2.43859 L -0.55568 2.60684 L -0.40882 2.75433 L -0.27168 2.87859 L -0.14653 2.97758 L -0.03544 3.04965" />
    <path d="M 0.20146 2.65896 C 0.2 2.67 0.21 2.69 0.20789 2.70552 C 0.21 2.72 0.21 2.74 0.2147 2.75164 C 0.22 2.77 0.22 2.78 0.22165 2.7971 C 0.22 2.81 0.23 2.83 0.22852 2.8417 C 0.23 2.85 0.23 2.86 0.23349 2.87448 C 0.24 2.89 0.24 2.9 0.23818 2.90658 C 0.24 2.92 0.24 2.93 0.24251 2.93793 C 0.24 2.95 0.25 2.96 0.24638 2.96841 C 0.25 2.98 0.25 2.99 0.2497 2.99794 C 0.25 3.01 0.25 3.02 0.25239 3.02642 C 0.25 3.04 0.25 3.04 0.25437 3.05377 C 0.25 3.06 0.26 3.07 0.25555 3.07989 C 0.26 3.09 0.26 3.09 0.25588 3.10119 C 0.26 3.11 0.26 3.12 0.25552 3.12195 C 0.26 3.13 0.25 3.14 0.25441 3.14155 C 0.25 3.15 0.25 3.15 0.25253 3.15991 C 0.25 3.17 0.25 3.17 0.24985 3.17697 C 0.25 3.18 0.25 3.19 0.24635 3.19266 C 0.25 3.2 0.24 3.2 0.24203 3.20694 C 0.24 3.21 0.24 3.22 0.23687 3.21975 C 0.24 3.22 0.23 3.23 0.23089 3.23106 C 0.23 3.23 0.23 3.24 0.22492 3.23977 C 0.22 3.24 0.22 3.24 0.21834 3.24724 C 0.22 3.25 0.21 3.25 0.21117 3.25347 C 0.21 3.26 0.21 3.26 0.20342 3.25845 C 0.2 3.26 0.2 3.26 0.19514 3.26216 C 0.19 3.26 0.19 3.26 0.18635 3.26461 C 0.18 3.27 0.18 3.27 0.1771 3.26581 C 0.17 3.27 0.17 3.27 0.16741 3.26575 C 0.16 3.27 0.16 3.27 0.15661 3.26433 C 0.15 3.26 0.15 3.26 0.14542 3.2615 C 0.14 3.26 0.14 3.26 0.13134 3.2562 C 0.13 3.25 0.12 3.25 0.1169 3.24891 C 0.11 3.25 0.11 3.24 0.10218 3.23968 C 0.1 3.24 0.09 3.23 0.08731 3.22855 C 0.08 3.22 0.08 3.22 0.0724 3.2156 C 0.07 3.21 0.06 3.21 0.05757 3.20087 C 0.05 3.2 0.05 3.19 0.04293 3.18443 C 0.04 3.18 0.03 3.17 0.02862 3.16634 C 0.02 3.16 0.02 3.15 0.0109 3.1408 C 0.01 3.13 0 3.12 -0.00585 3.11274 C -0.01 3.1 -0.02 3.09 -0.02138 3.08232 C -0.03 3.07 -0.03 3.06 -0.03544 3.04965" />
    <path d="M 0.20146 2.65896 L 0.16998 2.56524 L 0.13164 2.46439 L 0.08668 2.35703 L 0.03535 2.24376 L -0.02203 2.12527 L -0.08514 2.00225 L -0.1536 1.87543 L -0.227 1.74554 L -0.30492 1.61336 L -0.3869 1.47966 L -0.47245 1.34523 L -0.56107 1.21086 L -0.65224 1.07734 L -0.74542 0.94547 L -0.80966 0.85712 L -0.87439 0.77014 L -0.93946 0.68474 L -1.00467 0.60118 L -1.06985 0.51966 L -1.13482 0.44043 L -1.19942 0.36368 L -1.26345 0.28963 L -1.32675 0.21849 L -1.38915 0.15044 L -1.45047 0.08568 L -1.51054 0.02437 L -1.56922 -0.03332 L -1.62632 -0.08722 C -1.63 -0.09 -1.64 -0.1 -1.64449 -0.10335 C -1.65 -0.11 -1.66 -0.11 -1.6629 -0.1184 C -1.67 -0.12 -1.67 -0.13 -1.67822 -0.12993 C -1.68 -0.13 -1.69 -0.14 -1.69359 -0.14061 C -1.7 -0.14 -1.7 -0.15 -1.70896 -0.15038 C -1.71 -0.15 -1.72 -0.16 -1.72431 -0.15922 C -1.73 -0.16 -1.73 -0.16 -1.73958 -0.16709 C -1.74 -0.17 -1.75 -0.17 -1.75474 -0.17394 C -1.76 -0.18 -1.76 -0.18 -1.76974 -0.17976 C -1.77 -0.18 -1.78 -0.18 -1.78456 -0.18451 C -1.79 -0.19 -1.8 -0.19 -1.80505 -0.18936 C -1.81 -0.19 -1.82 -0.19 -1.82504 -0.19202 C -1.83 -0.19 -1.84 -0.19 -1.84448 -0.19246 C -1.85 -0.19 -1.86 -0.19 -1.86334 -0.19066 L -1.97413 -0.00796 L -1.97688 -0.00312 L -1.97942 0.00199 L -1.98176 0.00738 L -1.98391 0.01304 L -1.98584 0.01898 L -1.98758 0.0252 L -1.98911 0.03168 L -1.99044 0.03844 L -1.99157 0.04546 L -1.99249 0.05276 L -1.9932 0.06032 L -1.99371 0.06814 L -1.99402 0.07623 L -1.99412 0.08458 L -1.98105 0.19673 L -1.94219 0.33916 L -1.87854 0.50816 L -1.79178 0.69932 L -1.68417 0.90762 L -1.55852 1.12764 L -1.41812 1.35361 L -1.26664 1.57964 L -1.10803 1.79981 L -0.94645 2.00837 L -0.78611 2.19986 L -0.63121 2.36929 L -0.4858 2.51223 L -0.35367 2.62493 L -0.33318 2.65828 L -0.31213 2.69148 L -0.29057 2.72445 L -0.26855 2.7571 L -0.24613 2.78936 L -0.22337 2.82116 L -0.20031 2.8524 L -0.17701 2.88303 L -0.15353 2.91295 L -0.12993 2.94211 L -0.10626 2.97042 L -0.08259 2.99783 L -0.05896 3.02426 L -0.03544 3.04965" />
    <path d="M -2.24412 3.47759 A 1.25 0.4185 180 1 0 0.25588 3.47759" />
    <path d="M -1.99678 0.52372 A 1.25 0.4185 360 0 1 -2.21634 0.36155" />
    <path d="M -2.08347 0.14237 C -2.08 0.15 -2.08 0.15 -2.08453 0.16021 C -2.08 0.17 -2.08 0.17 -2.08495 0.17836 C -2.08 0.18 -2.08 0.19 -2.08473 0.19681 C -2.08 0.2 -2.08 0.21 -2.08388 0.21555 C -2.08 0.22 -2.08 0.23 -2.08239 0.23457 C -2.08 0.24 -2.08 0.25 -2.08028 0.25386 C -2.08 0.26 -2.08 0.27 -2.07754 0.27338 C -2.08 0.28 -2.08 0.29 -2.0742 0.29313 C -2.07 0.3 -2.07 0.31 -2.06981 0.3151 C -2.07 0.32 -2.07 0.33 -2.06471 0.33726 C -2.06 0.34 -2.06 0.35 -2.05892 0.35955 C -2.06 0.37 -2.05 0.37 -2.05245 0.38193 C -2.05 0.39 -2.05 0.4 -2.04534 0.40434 C -2.04 0.41 -2.04 0.42 -2.0376 0.42673 C -2.03 0.43 -2.03 0.44 -2.02927 0.44902 C -2.03 0.46 -2.02 0.46 -2.02039 0.47115 C -2.02 0.48 -2.01 0.49 -2.00893 0.49767 C -2 0.51 -2 0.52 -1.99678 0.52372" />
    <path d="M -1.97413 -0.00796 L -2.07361 0.1561" />
    <path d="M -1.62595 -0.36699 L -1.62595 -0.08688" />
    <path d="M -1.62595 -0.36699 C -1.63 -0.37 -1.63 -0.38 -1.62569 -0.3879 C -1.63 -0.39 -1.63 -0.4 -1.62491 -0.40953 C -1.62 -0.42 -1.62 -0.42 -1.62361 -0.43175 C -1.62 -0.44 -1.62 -0.45 -1.62179 -0.45443 C -1.62 -0.46 -1.62 -0.47 -1.61946 -0.47743 C -1.62 -0.49 -1.62 -0.49 -1.61664 -0.50063 C -1.62 -0.51 -1.61 -0.52 -1.61332 -0.52389 C -1.61 -0.53 -1.61 -0.54 -1.60952 -0.5471 C -1.61 -0.56 -1.61 -0.56 -1.60483 -0.57227 C -1.6 -0.58 -1.6 -0.59 -1.59959 -0.59713 C -1.6 -0.6 -1.6 -0.61 -1.59677 -0.60941 C -1.6 -0.61 -1.59 -0.62 -1.59382 -0.62157 C -1.59 -0.63 -1.59 -0.63 -1.59074 -0.63362 C -1.59 -0.64 -1.59 -0.64 -1.58752 -0.64553 C -1.59 -0.64 -1.59 -0.64 -1.58751 -0.63131 C -1.59 -0.63 -1.59 -0.62 -1.58711 -0.61691 C -1.59 -0.61 -1.59 -0.6 -1.58517 -0.58759 C -1.58 -0.58 -1.58 -0.57 -1.58173 -0.55765 C -1.58 -0.55 -1.58 -0.54 -1.5768 -0.52714 C -1.58 -0.52 -1.57 -0.51 -1.57242 -0.50517 C -1.57 -0.5 -1.57 -0.49 -1.56732 -0.48302 C -1.57 -0.48 -1.56 -0.47 -1.56152 -0.46073 C -1.56 -0.45 -1.56 -0.45 -1.55506 -0.43835 C -1.55 -0.43 -1.55 -0.42 -1.54794 -0.41593 C -1.55 -0.41 -1.54 -0.4 -1.54021 -0.39355 C -1.54 -0.39 -1.53 -0.38 -1.53188 -0.37126 C -1.53 -0.36 -1.53 -0.36 -1.523 -0.34912 C -1.52 -0.34 -1.52 -0.33 -1.51154 -0.32261 C -1.51 -0.31 -1.5 -0.31 -1.49939 -0.29655 L -1.45909 -0.21493 L -1.41617 -0.13127 L -1.37075 -0.04579 L -1.32295 0.04127 L -1.2729 0.12968 L -1.22074 0.21919 L -1.1666 0.30956 L -1.11064 0.40055 L -1.05301 0.4919 L -0.99387 0.58337 L -0.93337 0.67471 L -0.87169 0.76567 L -0.80898 0.85601 L -0.74542 0.94547 L -0.65078 1.07493 L -0.55522 1.20122 L -0.45933 1.32359 L -0.36365 1.44132 L -0.26875 1.55371 L -0.1752 1.66011 L -0.08354 1.75989 L 0.00569 1.85247 L 0.09196 1.93729 L 0.17476 2.01385 L 0.25362 2.08172 L 0.32805 2.14048 L 0.39764 2.1898 L 0.46195 2.22937" />
    <path d="M -1.47673 -0.82823 L -1.58752 -0.64553" />
    <path d="M -1.36595 -1.01094 L -1.47673 -0.82823 L -1.47948 -0.8234 L -1.48203 -0.81829 L -1.48437 -0.8129 L -1.48651 -0.80723 L -1.48845 -0.80129 L -1.49018 -0.79508 L -1.49172 -0.7886 L -1.49304 -0.78184 L -1.49417 -0.77481 L -1.49509 -0.76752 L -1.49581 -0.75996 L -1.49632 -0.75213 L -1.49662 -0.74404 L -1.49673 -0.73569 L -1.48366 -0.62355 L -1.44479 -0.48111 L -1.38115 -0.31211 L -1.29438 -0.12096 L -1.18677 0.08735 L -1.06112 0.30736 L -0.92072 0.53333 L -0.76924 0.75936 L -0.61064 0.97953 L -0.44905 1.18809 L -0.28872 1.37959 L -0.13382 1.54902 L 0.0116 1.69195 L 0.14372 1.80466 L 0.16422 1.83801 L 0.18527 1.8712 L 0.20683 1.90417 L 0.22884 1.93682 L 0.25126 1.96909 L 0.27403 2.00088 L 0.29709 2.03213 L 0.32039 2.06275 L 0.34386 2.09268 L 0.36746 2.12183 L 0.39113 2.15015 L 0.41481 2.17755 L 0.43843 2.20398 L 0.46195 2.22937" />
    <path d="M -1.12856 -1.18727 L -1.12856 -0.90716" />
    <path d="M -1.12856 -1.18727 C -1.13 -1.19 -1.13 -1.2 -1.1283 -1.20817 C -1.13 -1.22 -1.13 -1.22 -1.12751 -1.22981 C -1.13 -1.24 -1.13 -1.24 -1.12621 -1.25203 C -1.13 -1.26 -1.13 -1.27 -1.12439 -1.27471 C -1.12 -1.28 -1.12 -1.29 -1.12207 -1.29771 C -1.12 -1.31 -1.12 -1.31 -1.11924 -1.3209 C -1.12 -1.33 -1.12 -1.34 -1.11592 -1.34416 C -1.11 -1.35 -1.11 -1.36 -1.11212 -1.36737 C -1.11 -1.38 -1.11 -1.38 -1.10744 -1.39254 C -1.11 -1.4 -1.1 -1.41 -1.1022 -1.4174 C -1.1 -1.42 -1.1 -1.43 -1.09938 -1.42968 C -1.1 -1.43 -1.1 -1.44 -1.09642 -1.44185 C -1.1 -1.45 -1.09 -1.45 -1.09334 -1.45389 C -1.09 -1.46 -1.09 -1.46 -1.09013 -1.4658 C -1.09 -1.46 -1.09 -1.46 -1.09011 -1.45158 C -1.09 -1.45 -1.09 -1.44 -1.08971 -1.43718 C -1.09 -1.43 -1.09 -1.42 -1.08778 -1.40787 C -1.09 -1.4 -1.09 -1.39 -1.08433 -1.37792 C -1.08 -1.37 -1.08 -1.36 -1.0794 -1.34742 C -1.08 -1.34 -1.08 -1.33 -1.07502 -1.32545 C -1.07 -1.32 -1.07 -1.31 -1.06992 -1.3033 C -1.07 -1.3 -1.07 -1.29 -1.06413 -1.281 C -1.06 -1.27 -1.06 -1.27 -1.05766 -1.25862 C -1.06 -1.25 -1.05 -1.24 -1.05055 -1.23621 C -1.05 -1.23 -1.05 -1.22 -1.04281 -1.21383 C -1.04 -1.21 -1.04 -1.2 -1.03448 -1.19154 C -1.03 -1.18 -1.03 -1.18 -1.0256 -1.1694 C -1.02 -1.16 -1.02 -1.15 -1.01414 -1.14289 C -1.01 -1.13 -1.01 -1.13 -1.00199 -1.11683 L -0.96169 -1.03521 L -0.91878 -0.95154 L -0.87335 -0.86606 L -0.82555 -0.779 L -0.7755 -0.6906 L -0.72334 -0.60109 L -0.66921 -0.51071 L -0.61325 -0.41973 L -0.55562 -0.32838 L -0.49648 -0.23691 L -0.43598 -0.14556 L -0.37429 -0.0546 L -0.31159 0.03573 L -0.24803 0.12519 L -0.31226 0.03685 L -0.377 -0.05014 L -0.44206 -0.13553 L -0.50727 -0.2191 L -0.57245 -0.30061 L -0.63743 -0.37985 L -0.70202 -0.4566 L -0.76606 -0.53064 L -0.82936 -0.60178 L -0.89175 -0.66983 L -0.95307 -0.7346 L -1.01315 -0.79591 L -1.07182 -0.85359 L -1.12893 -0.9075 C -1.13 -0.91 -1.14 -0.92 -1.1471 -0.92363 C -1.15 -0.93 -1.16 -0.93 -1.16551 -0.93867 C -1.17 -0.94 -1.18 -0.95 -1.18082 -0.9502 C -1.19 -0.95 -1.19 -0.96 -1.19619 -0.96088 C -1.2 -0.96 -1.21 -0.97 -1.21157 -0.97066 C -1.22 -0.97 -1.22 -0.98 -1.22691 -0.9795 C -1.23 -0.98 -1.24 -0.98 -1.24218 -0.98736 C -1.25 -0.99 -1.25 -0.99 -1.25734 -0.99422 C -1.26 -1 -1.27 -1 -1.27234 -1.00003 C -1.28 -1 -1.28 -1 -1.28717 -1.00479 C -1.29 -1.01 -1.3 -1.01 -1.30765 -1.00964 C -1.31 -1.01 -1.32 -1.01 -1.32764 -1.0123 C -1.33 -1.01 -1.34 -1.01 -1.34709 -1.01274 C -1.35 -1.01 -1.36 -1.01 -1.36595 -1.01094" />
    <path d="M -0.97934 -1.64851 L -1.09013 -1.4658" />
    <path d="M -0.86855 -1.83121 L -0.97934 -1.64851 L -0.98209 -1.64367 L -0.98463 -1.63856 L -0.98697 -1.63317 L -0.98911 -1.62751 L -0.99105 -1.62157 L -0.99279 -1.61536 L -0.99432 -1.60887 L -0.99565 -1.60212 L -0.99677 -1.59509 L -0.99769 -1.58779 L -0.99841 -1.58023 L -0.99892 -1.57241 L -0.99923 -1.56432 L -0.99933 -1.55597 L -0.98626 -1.44382 L -0.9474 -1.30139 L -0.88375 -1.13239 L -0.79699 -0.94124 L -0.68938 -0.73293 L -0.56373 -0.51292 L -0.42333 -0.28694 L -0.27185 -0.06092 L -0.11324 0.15925 L 0.04834 0.36781 L 0.20868 0.55931 L 0.36358 0.72874 L 0.50899 0.87168 L 0.64112 0.98438 L 0.66161 1.01773 L 0.68266 1.05093 L 0.70422 1.08389 L 0.72624 1.11655 L 0.74866 1.14881 L 0.77143 1.1806 L 0.79449 1.21185 L 0.81778 1.24247 L 0.84126 1.2724 L 0.86486 1.30156 L 0.88853 1.32987 L 0.9122 1.35728 L 0.93583 1.38371 L 0.95935 1.4091" />
    <path d="M -0.63116 -2.00754 L -0.63116 -1.72743" />
    <path d="M -0.63116 -2.00754 C -0.63 -2.01 -0.63 -2.02 -0.6309 -2.02845 C -0.63 -2.04 -0.63 -2.04 -0.63012 -2.05008 C -0.63 -2.06 -0.63 -2.06 -0.62881 -2.07231 C -0.63 -2.08 -0.63 -2.09 -0.627 -2.09498 C -0.63 -2.1 -0.63 -2.11 -0.62467 -2.11798 C -0.62 -2.13 -0.62 -2.13 -0.62185 -2.14118 C -0.62 -2.15 -0.62 -2.16 -0.61853 -2.16444 C -0.62 -2.17 -0.62 -2.18 -0.61473 -2.18765 C -0.61 -2.2 -0.61 -2.2 -0.61004 -2.21282 C -0.61 -2.22 -0.61 -2.23 -0.6048 -2.23768 C -0.6 -2.24 -0.6 -2.25 -0.60198 -2.24996 C -0.6 -2.25 -0.6 -2.26 -0.59903 -2.26213 C -0.6 -2.27 -0.6 -2.27 -0.59595 -2.27417 C -0.59 -2.28 -0.59 -2.28 -0.59273 -2.28608 C -0.59 -2.28 -0.59 -2.28 -0.59272 -2.27186 C -0.59 -2.27 -0.59 -2.26 -0.59232 -2.25746 C -0.59 -2.25 -0.59 -2.24 -0.59038 -2.22815 C -0.59 -2.22 -0.59 -2.21 -0.58693 -2.1982 C -0.59 -2.19 -0.58 -2.18 -0.58201 -2.1677 C -0.58 -2.16 -0.58 -2.15 -0.57762 -2.14573 C -0.58 -2.14 -0.57 -2.13 -0.57253 -2.12357 C -0.57 -2.12 -0.57 -2.11 -0.56673 -2.10128 C -0.56 -2.09 -0.56 -2.09 -0.56027 -2.0789 C -0.56 -2.07 -0.56 -2.06 -0.55315 -2.05649 C -0.55 -2.05 -0.55 -2.04 -0.54541 -2.0341 C -0.54 -2.03 -0.54 -2.02 -0.53709 -2.01181 C -0.53 -2 -0.53 -2 -0.5282 -1.98968 C -0.52 -1.98 -0.52 -1.97 -0.51675 -1.96316 C -0.51 -1.95 -0.51 -1.95 -0.5046 -1.9371 L -0.4643 -1.85548 L -0.42138 -1.77182 L -0.37596 -1.68634 L -0.32816 -1.59928 L -0.27811 -1.51087 L -0.22594 -1.42136 L -0.17181 -1.33099 L -0.11585 -1.24 L -0.05822 -1.14865 L 0.00092 -1.05718 L 0.06142 -0.96584 L 0.1231 -0.87488 L 0.18581 -0.78455 L 0.24937 -0.69509 L 0.18513 -0.78343 L 0.1204 -0.87042 L 0.05534 -0.95581 L -0.00988 -1.03938 L -0.07506 -1.12089 L -0.14003 -1.20013 L -0.20463 -1.27687 L -0.26866 -1.35092 L -0.33196 -1.42206 L -0.39436 -1.49011 L -0.45568 -1.55487 L -0.51575 -1.61618 L -0.57442 -1.67387 L -0.63153 -1.72777 C -0.64 -1.73 -0.64 -1.74 -0.6497 -1.7439 C -0.66 -1.75 -0.66 -1.75 -0.66811 -1.75895 C -0.67 -1.76 -0.68 -1.77 -0.68343 -1.77048 C -0.69 -1.77 -0.69 -1.78 -0.69879 -1.78116 C -0.7 -1.78 -0.71 -1.79 -0.71417 -1.79094 C -0.72 -1.79 -0.72 -1.8 -0.72952 -1.79978 C -0.73 -1.8 -0.74 -1.81 -0.74479 -1.80764 C -0.75 -1.81 -0.75 -1.81 -0.75994 -1.81449 C -0.76 -1.82 -0.77 -1.82 -0.77495 -1.82031 C -0.78 -1.82 -0.78 -1.82 -0.78977 -1.82506 C -0.8 -1.83 -0.8 -1.83 -0.81025 -1.82991 C -0.82 -1.83 -0.82 -1.83 -0.83024 -1.83258 C -0.84 -1.83 -0.84 -1.83 -0.84969 -1.83302 C -0.86 -1.83 -0.86 -1.83 -0.86855 -1.83121" />
    <path d="M -0.48194 -2.46878 L -0.59273 -2.28608" />
    <path d="M -0.37115 -2.65149 L -0.48194 -2.46878 L -0.48469 -2.46395 L -0.48723 -2.45884 L -0.48958 -2.45345 L -0.49172 -2.44779 L -0.49366 -2.44185 L -0.49539 -2.43563 L -0.49692 -2.42915 L -0.49825 -2.42239 L -0.49938 -2.41537 L -0.5003 -2.40807 L -0.50101 -2.40051 L -0.50153 -2.39268 L -0.50183 -2.38459 L -0.50194 -2.37624 L -0.48887 -2.2641 L -0.45 -2.12167 L -0.38636 -1.95266 L -0.29959 -1.76151 L -0.19198 -1.55321 L -0.06633 -1.33319 L 0.07407 -1.10722 L 0.22555 -0.88119 L 0.38416 -0.66102 L 0.54574 -0.45246 L 0.70607 -0.26096 L 0.86097 -0.09153 L 1.00639 0.0514 L 1.13852 0.1641 L 1.15901 0.19745 L 1.18006 0.23065 L 1.20162 0.26362 L 1.22364 0.29627 L 1.24605 0.32854 L 1.26882 0.36033 L 1.29188 0.39157 L 1.31518 0.4222 L 1.33866 0.45212 L 1.36226 0.48128 L 1.38592 0.50959 L 1.4096 0.537 L 1.43323 0.56343 L 1.45675 0.58882" />
    <path d="M -0.13377 -2.82782 L -0.13377 -2.54771" />
    <path d="M -0.13377 -2.82782 C -0.13 -2.83 -0.13 -2.84 -0.1335 -2.84873 C -0.13 -2.86 -0.13 -2.86 -0.13272 -2.87036 C -0.13 -2.88 -0.13 -2.89 -0.13142 -2.89258 C -0.13 -2.9 -0.13 -2.91 -0.1296 -2.91526 C -0.13 -2.92 -0.13 -2.93 -0.12728 -2.93826 C -0.13 -2.95 -0.13 -2.95 -0.12445 -2.96145 C -0.12 -2.97 -0.12 -2.98 -0.12113 -2.98471 C -0.12 -2.99 -0.12 -3 -0.11733 -3.00793 C -0.12 -3.02 -0.11 -3.02 -0.11264 -3.03309 C -0.11 -3.04 -0.11 -3.05 -0.10741 -3.05795 C -0.11 -3.06 -0.11 -3.07 -0.10459 -3.07024 C -0.1 -3.07 -0.1 -3.08 -0.10163 -3.0824 C -0.1 -3.09 -0.1 -3.09 -0.09855 -3.09444 C -0.1 -3.1 -0.1 -3.1 -0.09534 -3.10635 C -0.1 -3.1 -0.1 -3.1 -0.09532 -3.09213 C -0.1 -3.09 -0.1 -3.08 -0.09492 -3.07774 C -0.09 -3.07 -0.09 -3.06 -0.09298 -3.04842 C -0.09 -3.04 -0.09 -3.03 -0.08954 -3.01848 C -0.09 -3.01 -0.09 -3 -0.08461 -2.98797 C -0.08 -2.98 -0.08 -2.97 -0.08023 -2.966 C -0.08 -2.96 -0.08 -2.95 -0.07513 -2.94385 C -0.07 -2.94 -0.07 -2.93 -0.06934 -2.92155 C -0.07 -2.91 -0.07 -2.91 -0.06287 -2.89917 C -0.06 -2.89 -0.06 -2.88 -0.05575 -2.87676 C -0.05 -2.87 -0.05 -2.86 -0.04802 -2.85438 C -0.05 -2.85 -0.04 -2.84 -0.03969 -2.83209 C -0.04 -2.82 -0.03 -2.82 -0.03081 -2.80995 C -0.03 -2.8 -0.02 -2.79 -0.01935 -2.78344 C -0.02 -2.77 -0.01 -2.77 -0.0072 -2.75738 A 1.25 0.4185 360 0 1 -0.13377 -2.82782 Z" />
    <path d="M 0.01545 -3.28906 L -0.09534 -3.10635" />
    <path d="M 0.12624 -3.47177 L 0.01545 -3.28906 L 0.01271 -3.28423 L 0.01016 -3.27912 L 0.00782 -3.27373 L 0.00568 -3.26806 L 0.00374 -3.26212 L 0.002 -3.25591 L 0.00047 -3.24942 L -0.00086 -3.24267 L -0.00198 -3.23564 L -0.0029 -3.22835 L -0.00362 -3.22079 L -0.00413 -3.21296 L -0.00444 -3.20487 L -0.00454 -3.19652 L 0.00853 -3.08438 L 0.04739 -2.94194 L 0.11104 -2.77294 L 0.1978 -2.58179 L 0.30541 -2.37348 L 0.43106 -2.15347 L 0.57146 -1.92749 L 0.72295 -1.70147 L 0.88155 -1.4813 L 1.04313 -1.27274 L 1.20347 -1.08124 L 1.35837 -0.91181 L 1.50378 -0.76888 L 1.63591 -0.65617 L 1.6564 -0.62282 L 1.67746 -0.58962 L 1.69902 -0.55666 L 1.72103 -0.524 L 1.74345 -0.49174 L 1.76622 -0.45995 L 1.78928 -0.4287 L 1.81257 -0.39808 L 1.83605 -0.36815 L 1.85965 -0.339 L 1.88332 -0.31068 L 1.90699 -0.28328 L 1.93062 -0.25685 L 1.95414 -0.23146" />
    <path d="M 0.21441 -3.46272 L 0.21441 -4.15584 L -2.07361 -0.38257" />
    <path d="M -0.03059 -4.1725 L 0.21441 -4.15584" />
    <path d="M -0.10488 2.21465 C -0.11 2.22 -0.11 2.23 -0.10828 2.23278 C -0.11 2.24 -0.11 2.25 -0.1113 2.25143 C -0.11 2.26 -0.11 2.26 -0.11391 2.27057 C -0.11 2.28 -0.12 2.28 -0.11609 2.29017 C -0.12 2.3 -0.12 2.3 -0.11781 2.3102 C -0.12 2.32 -0.12 2.32 -0.11905 2.33064 C -0.12 2.34 -0.12 2.34 -0.11981 2.35147 C -0.12 2.36 -0.12 2.37 -0.12006 2.37265 C -0.12 2.38 -0.12 2.38 -0.1199 2.38979 C -0.12 2.4 -0.12 2.4 -0.11942 2.40709 C -0.12 2.41 -0.12 2.42 -0.11862 2.42455 C -0.12 2.43 -0.12 2.44 -0.11751 2.44214 C -0.12 2.45 -0.12 2.45 -0.1161 2.45984 C -0.12 2.47 -0.12 2.47 -0.1144 2.47764 C -0.11 2.48 -0.11 2.49 -0.11242 2.49551 C -0.11 2.5 -0.11 2.51 -0.11017 2.51343 C -0.11 2.52 -0.11 2.53 -0.10742 2.53306 C -0.11 2.54 -0.11 2.55 -0.1044 2.55271 C -0.1 2.56 -0.1 2.57 -0.10111 2.57236 C -0.1 2.58 -0.1 2.59 -0.0976 2.59199 C -0.1 2.6 -0.09 2.61 -0.09093 2.62636 C -0.09 2.64 -0.09 2.65 -0.08376 2.66049 C -0.08 2.67 -0.08 2.68 -0.0762 2.69433 C -0.07 2.71 -0.07 2.72 -0.06839 2.72781 C -0.07 2.74 -0.06 2.75 -0.06045 2.76087 C -0.06 2.77 -0.06 2.78 -0.0525 2.79345 C -0.05 2.8 -0.05 2.81 -0.04467 2.82546 C -0.04 2.84 -0.04 2.85 -0.03706 2.85686 C -0.02 2.94 0 3.01 0.00333 3.0693 C 0 3.09 0.01 3.1 0.00588 3.11839 C 0.01 3.12 0.01 3.13 0.00562 3.1324" />
    <path d="M 0.20146 2.65896 L 0.18277 2.62561 L 0.16338 2.59219 L 0.14335 2.55878 L 0.12272 2.52546 L 0.10154 2.49231 L 0.07986 2.45941 L 0.05774 2.42684 L 0.03523 2.39469 L 0.01239 2.36302 L -0.01073 2.33192 L -0.03408 2.30146 L -0.05759 2.27171 L -0.08121 2.24275 L -0.10488 2.21465 L -0.19881 2.00708 L -0.31735 1.77934 L -0.45684 1.53849 L -0.61296 1.29198 L -0.78087 1.04744 L -0.95539 0.81244 L -1.1311 0.59424 L -1.30258 0.39962 L -1.4645 0.23458 L -1.61187 0.10423 L -1.74012 0.01262 L -1.84528 -0.03742 L -1.9241 -0.04435 L -1.97413 -0.00796" />
    <path d="M 0.74676 -1.51536 L 0.84141 -1.3859 L 0.93696 -1.25961 L 1.03286 -1.13724 L 1.12854 -1.01951 L 1.22343 -0.90712 L 1.31699 -0.80072 L 1.40865 -0.70093 L 1.49788 -0.60836 L 1.58415 -0.52354 L 1.66695 -0.44697 L 1.74581 -0.37911 L 1.82024 -0.32035 L 1.88982 -0.27103 L 1.95414 -0.23146" />
    <path d="M -0.0072 -2.75738 L 0.0331 -2.67576 L 0.07602 -2.59209 L 0.12144 -2.50662 L 0.16924 -2.41955 L 0.21929 -2.33115 L 0.27145 -2.24164 L 0.32559 -2.15127 L 0.38154 -2.06028 L 0.43917 -1.96893 L 0.49832 -1.87746 L 0.55881 -1.78612 L 0.6205 -1.69516 L 0.68321 -1.60482 L 0.74676 -1.51536 L 0.68253 -1.60371 L 0.61779 -1.69069 L 0.55273 -1.77609 L 0.48752 -1.85965 L 0.42234 -1.94117 L 0.35736 -2.0204 L 0.29277 -2.09715 L 0.22874 -2.17119 L 0.16544 -2.24234 L 0.10304 -2.31038 L 0.04172 -2.37515 L -0.01836 -2.43646 L -0.07703 -2.49415 L -0.13413 -2.54805 C -0.14 -2.55 -0.15 -2.56 -0.1523 -2.56418 C -0.16 -2.57 -0.16 -2.57 -0.17072 -2.57923 C -0.18 -2.58 -0.18 -2.59 -0.18603 -2.59076 C -0.19 -2.59 -0.2 -2.6 -0.2014 -2.60143 C -0.21 -2.6 -0.21 -2.61 -0.21678 -2.61121 C -0.22 -2.61 -0.23 -2.62 -0.23212 -2.62005 C -0.24 -2.62 -0.24 -2.63 -0.24739 -2.62792 C -0.25 -2.63 -0.26 -2.63 -0.26255 -2.63477 C -0.27 -2.64 -0.27 -2.64 -0.27755 -2.64059 C -0.28 -2.64 -0.29 -2.64 -0.29238 -2.64534 C -0.3 -2.65 -0.31 -2.65 -0.31286 -2.65019 C -0.32 -2.65 -0.33 -2.65 -0.33285 -2.65285 C -0.34 -2.65 -0.35 -2.65 -0.35229 -2.65329 C -0.36 -2.65 -0.36 -2.65 -0.37115 -2.65149" />
    <path d="M -0.5046 -1.9371 A 1.25 0.4185 360 0 1 -0.63116 -2.00754" />
    <path d="M 1.69365 0.19813 L 1.66217 0.10441 L 1.62383 0.00357 L 1.57887 -0.1038 L 1.52754 -0.21706 L 1.47016 -0.33556 L 1.40705 -0.45858 L 1.33859 -0.5854 L 1.26519 -0.71529 L 1.18727 -0.84747 L 1.10529 -0.98117 L 1.01974 -1.1156 L 0.93112 -1.24997 L 0.83995 -1.38348 L 0.74676 -1.51536" />
    <path d="M 1.69365 0.19813 L 1.67496 0.16478 L 1.65557 0.13136 L 1.63553 0.09795 L 1.6149 0.06463 L 1.59372 0.03148 L 1.57205 -0.00142 L 1.54993 -0.03398 L 1.52742 -0.06614 L 1.50458 -0.09781 L 1.48146 -0.12891 L 1.45811 -0.15937 L 1.4346 -0.18912 L 1.41098 -0.21808 L 1.3873 -0.24618 C 1.39 -0.24 1.38 -0.23 1.38391 -0.22804 C 1.38 -0.22 1.38 -0.22 1.38089 -0.2094 C 1.38 -0.2 1.38 -0.2 1.37828 -0.19026 C 1.38 -0.18 1.38 -0.18 1.3761 -0.17066 C 1.38 -0.16 1.37 -0.16 1.37438 -0.15063 C 1.37 -0.14 1.37 -0.14 1.37313 -0.13019 C 1.37 -0.12 1.37 -0.12 1.37238 -0.10936 C 1.37 -0.1 1.37 -0.1 1.37213 -0.08818 C 1.37 -0.08 1.37 -0.08 1.37229 -0.07104 C 1.37 -0.07 1.37 -0.06 1.37277 -0.05374 C 1.37 -0.05 1.37 -0.04 1.37357 -0.03628 C 1.37 -0.03 1.37 -0.02 1.37468 -0.01869 C 1.38 -0.01 1.38 -0.01 1.37609 -0.00099 C 1.38 0 1.38 0.01 1.37779 0.01681 C 1.38 0.02 1.38 0.03 1.37977 0.03468 C 1.38 0.04 1.38 0.05 1.38202 0.0526 C 1.38 0.06 1.38 0.07 1.38477 0.07223 C 1.39 0.08 1.39 0.09 1.38779 0.09189 C 1.39 0.1 1.39 0.1 1.39107 0.11154 C 1.39 0.12 1.39 0.12 1.39459 0.13117 C 1.4 0.14 1.4 0.15 1.40125 0.16553 C 1.4 0.18 1.41 0.19 1.40843 0.19966 C 1.41 0.21 1.41 0.22 1.41599 0.2335 C 1.42 0.24 1.42 0.26 1.4238 0.26698 C 1.43 0.28 1.43 0.29 1.43174 0.30005 C 1.43 0.31 1.44 0.32 1.43968 0.33262 C 1.44 0.34 1.44 0.35 1.44752 0.36464 C 1.45 0.38 1.45 0.39 1.45513 0.39603 C 1.47 0.47 1.49 0.55 1.49552 0.60848 C 1.5 0.63 1.5 0.64 1.49806 0.65756 C 1.5 0.66 1.5 0.67 1.4978 0.67157" />
    <path d="M 1.3873 -0.24618 L 1.29338 -0.45375 L 1.17483 -0.68149 L 1.03535 -0.92234 L 0.87923 -1.16885 L 0.71131 -1.41339 L 0.5368 -1.64839 L 0.36108 -1.86658 L 0.18961 -2.06121 L 0.02768 -2.22625 L -0.11969 -2.35659 L -0.24793 -2.44821 L -0.35309 -2.49825 L -0.43191 -2.50518 L -0.48194 -2.46878" />
    <path d="M 0.24937 -0.69509 L 0.34401 -0.56562 L 0.43957 -0.43933 L 0.53547 -0.31697 L 0.63114 -0.19924 L 0.72604 -0.08684 L 0.81959 0.01956 L 0.91125 0.11934 L 1.00048 0.21191 L 1.08675 0.29673 L 1.16956 0.3733 L 1.24841 0.44117 L 1.32285 0.49993 L 1.39243 0.54924 L 1.45675 0.58882" />
    <path d="M -1.00199 -1.11683 A 1.25 0.4185 360 0 1 -1.12856 -1.18727" />
    <path d="M 1.19626 1.0184 L 1.16477 0.92468 L 1.12643 0.82384 L 1.08147 0.71647 L 1.03014 0.60321 L 0.97276 0.48472 L 0.90965 0.3617 L 0.8412 0.23487 L 0.76779 0.10499 L 0.68987 -0.0272 L 0.60789 -0.16089 L 0.52234 -0.29532 L 0.43372 -0.42969 L 0.34255 -0.56321 L 0.24937 -0.69509" />
    <path d="M 1.19626 1.0184 L 1.17756 0.98506 L 1.15817 0.95164 L 1.13814 0.91823 L 1.11751 0.88491 L 1.09633 0.85176 L 1.07465 0.81886 L 1.05253 0.78629 L 1.03003 0.75414 L 1.00718 0.72247 L 0.98406 0.69137 L 0.96072 0.6609 L 0.9372 0.63116 L 0.91358 0.6022 L 0.88991 0.5741 C 0.89 0.58 0.89 0.59 0.88651 0.59223 C 0.89 0.6 0.88 0.6 0.88349 0.61088 C 0.88 0.62 0.88 0.62 0.88088 0.63002 C 0.88 0.64 0.88 0.64 0.8787 0.64961 C 0.88 0.66 0.88 0.66 0.87698 0.66965 C 0.88 0.68 0.88 0.68 0.87574 0.69009 C 0.88 0.7 0.88 0.7 0.87499 0.71091 C 0.87 0.72 0.87 0.72 0.87473 0.7321 C 0.87 0.74 0.87 0.74 0.87489 0.74923 C 0.88 0.75 0.88 0.76 0.87537 0.76654 C 0.88 0.77 0.88 0.78 0.87617 0.784 C 0.88 0.79 0.88 0.8 0.87728 0.80159 C 0.88 0.81 0.88 0.81 0.87869 0.81929 C 0.88 0.83 0.88 0.83 0.88039 0.83709 C 0.88 0.84 0.88 0.85 0.88238 0.85496 C 0.88 0.86 0.88 0.87 0.88462 0.87288 C 0.89 0.88 0.89 0.89 0.88737 0.89251 C 0.89 0.9 0.89 0.91 0.8904 0.91216 C 0.89 0.92 0.89 0.93 0.89368 0.93181 C 0.89 0.94 0.9 0.94 0.89719 0.95144 C 0.9 0.96 0.9 0.97 0.90386 0.9858 C 0.91 1 0.91 1.01 0.91103 1.01994 C 0.91 1.03 0.92 1.04 0.91859 1.05378 C 0.92 1.07 0.92 1.08 0.9264 1.08726 C 0.93 1.1 0.93 1.11 0.93434 1.12032 C 0.94 1.13 0.94 1.14 0.94229 1.15289 C 0.94 1.16 0.95 1.17 0.95012 1.18491 C 0.95 1.2 0.96 1.21 0.95773 1.21631 C 0.98 1.3 0.99 1.37 0.99812 1.42875 C 1 1.45 1 1.46 1.00067 1.47784 C 1 1.48 1 1.49 1.00041 1.49185" />
    <path d="M 0.88991 0.5741 L 0.79598 0.36653 L 0.67744 0.13879 L 0.53795 -0.10206 L 0.38183 -0.34857 L 0.21392 -0.59311 L 0.0394 -0.82812 L -0.13631 -1.04631 L -0.30779 -1.24094 L -0.46971 -1.40597 L -0.61708 -1.53632 L -0.74533 -1.62793 L -0.85049 -1.67798 L -0.92931 -1.68491 L -0.97934 -1.64851" />
    <path d="M -0.24803 0.12519 L -0.15338 0.25465 L -0.05783 0.38094 L 0.03807 0.50331 L 0.13375 0.62104 L 0.22864 0.73344 L 0.3222 0.83984 L 0.41386 0.93962 L 0.50308 1.03219 L 0.58935 1.11701 L 0.67216 1.19358 L 0.75101 1.26144 L 0.82545 1.32021 L 0.89503 1.36952 L 0.95935 1.4091" />
    <path d="M -1.49939 -0.29655 A 1.25 0.4185 360 0 1 -1.62595 -0.36699" />
    <path d="M 0.69886 1.83868 L 0.66738 1.74496 L 0.62904 1.64412 L 0.58407 1.53675 L 0.53275 1.42349 L 0.47536 1.305 L 0.41226 1.18198 L 0.3438 1.05515 L 0.2704 0.92526 L 0.19247 0.79308 L 0.1105 0.65938 L 0.02495 0.52495 L -0.06367 0.39058 L -0.15485 0.25707 L -0.24803 0.12519" />
    <path d="M 0.69886 1.83868 L 0.68017 1.80533 L 0.66078 1.77191 L 0.64074 1.7385 L 0.62011 1.70518 L 0.59893 1.67203 L 0.57726 1.63913 L 0.55514 1.60657 L 0.53263 1.57441 L 0.50979 1.54274 L 0.48667 1.51164 L 0.46332 1.48118 L 0.43981 1.45143 L 0.41619 1.42247 L 0.39251 1.39437 C 0.39 1.4 0.39 1.41 0.38912 1.41251 C 0.39 1.42 0.39 1.42 0.3861 1.43116 C 0.39 1.44 0.38 1.44 0.38348 1.45029 C 0.38 1.46 0.38 1.46 0.38131 1.46989 C 0.38 1.48 0.38 1.48 0.37959 1.48992 C 0.38 1.5 0.38 1.5 0.37834 1.51036 C 0.38 1.52 0.38 1.52 0.37759 1.53119 C 0.38 1.54 0.38 1.55 0.37734 1.55238 C 0.38 1.56 0.38 1.56 0.3775 1.56951 C 0.38 1.58 0.38 1.58 0.37798 1.58681 C 0.38 1.59 0.38 1.6 0.37878 1.60427 C 0.38 1.61 0.38 1.62 0.37988 1.62186 C 0.38 1.63 0.38 1.63 0.38129 1.63957 C 0.38 1.65 0.38 1.65 0.383 1.65736 C 0.38 1.66 0.38 1.67 0.38498 1.67524 C 0.39 1.68 0.39 1.69 0.38723 1.69316 C 0.39 1.7 0.39 1.71 0.38997 1.71279 C 0.39 1.72 0.39 1.73 0.393 1.73244 C 0.39 1.74 0.4 1.75 0.39628 1.75209 C 0.4 1.76 0.4 1.77 0.3998 1.77172 C 0.4 1.78 0.4 1.79 0.40646 1.80608 C 0.41 1.82 0.41 1.83 0.41364 1.84021 C 0.42 1.85 0.42 1.86 0.4212 1.87405 C 0.42 1.89 0.43 1.9 0.42901 1.90754 C 0.43 1.92 0.43 1.93 0.43695 1.9406 C 0.44 1.95 0.44 1.96 0.44489 1.97317 C 0.45 1.98 0.45 1.99 0.45273 2.00519 C 0.46 2.02 0.46 2.03 0.46034 2.03658 C 0.48 2.12 0.49 2.19 0.50073 2.24903 C 0.5 2.27 0.5 2.28 0.50327 2.29812 C 0.5 2.3 0.5 2.31 0.50301 2.31212" />
    <path d="M 0.39251 1.39437 L 0.29858 1.1868 L 0.18004 0.95907 L 0.04055 0.71822 L -0.11556 0.47171 L -0.28348 0.22716 L -0.45799 -0.00784 L -0.63371 -0.22603 L -0.80518 -0.42066 L -0.96711 -0.5857 L -1.11448 -0.71604 L -1.24273 -0.80765 L -1.34789 -0.8577 L -1.4267 -0.86463 L -1.47673 -0.82823" />
    <path d="M 2.19105 -0.62215 C 2.19 -0.61 2.2 -0.59 2.19748 -0.57558 C 2.2 -0.56 2.2 -0.54 2.20428 -0.52947 C 2.21 -0.51 2.21 -0.5 2.21123 -0.484 C 2.21 -0.47 2.22 -0.45 2.2181 -0.43941 C 2.22 -0.43 2.22 -0.42 2.22307 -0.40663 C 2.22 -0.4 2.23 -0.39 2.22776 -0.37452 C 2.23 -0.36 2.23 -0.35 2.23209 -0.34318 C 2.23 -0.33 2.23 -0.32 2.23596 -0.3127 C 2.24 -0.3 2.24 -0.29 2.23929 -0.28317 C 2.24 -0.27 2.24 -0.26 2.24198 -0.25468 C 2.24 -0.25 2.24 -0.24 2.24395 -0.22733 C 2.24 -0.22 2.24 -0.21 2.24513 -0.20121 C 2.25 -0.19 2.25 -0.19 2.24546 -0.17992 L 2.24546 0.19649" />
    <path d="M 2.24546 -0.17992 C 2.25 -0.17 2.25 -0.17 2.2451 -0.15915 C 2.24 -0.15 2.24 -0.15 2.244 -0.13956 C 2.24 -0.13 2.24 -0.13 2.24212 -0.1212 C 2.24 -0.12 2.24 -0.11 2.23943 -0.10414 C 2.24 -0.1 2.24 -0.09 2.23594 -0.08844 C 2.23 -0.08 2.23 -0.08 2.23161 -0.07417 C 2.23 -0.07 2.23 -0.07 2.22645 -0.06135 C 2.22 -0.06 2.22 -0.05 2.22047 -0.05005 C 2.22 -0.05 2.22 -0.04 2.2145 -0.04134 C 2.21 -0.04 2.21 -0.04 2.20792 -0.03386 C 2.21 -0.03 2.2 -0.03 2.20075 -0.02763 C 2.2 -0.03 2.2 -0.02 2.19301 -0.02266 C 2.19 -0.02 2.19 -0.02 2.18473 -0.01895 C 2.18 -0.02 2.18 -0.02 2.17594 -0.01649 C 2.17 -0.02 2.17 -0.02 2.16668 -0.0153 C 2.16 -0.02 2.16 -0.02 2.157 -0.01535 C 2.15 -0.02 2.15 -0.02 2.14619 -0.01678 C 2.14 -0.02 2.14 -0.02 2.13501 -0.0196 C 2.13 -0.02 2.13 -0.02 2.12093 -0.0249 C 2.12 -0.03 2.11 -0.03 2.10648 -0.03219 C 2.1 -0.03 2.1 -0.04 2.09176 -0.04143 C 2.09 -0.04 2.08 -0.05 2.07689 -0.05255 C 2.07 -0.06 2.07 -0.06 2.06198 -0.0655 C 2.06 -0.07 2.05 -0.08 2.04715 -0.08023 C 2.04 -0.09 2.04 -0.09 2.03252 -0.09668 C 2.03 -0.1 2.02 -0.11 2.0182 -0.11477 C 2.01 -0.12 2.01 -0.13 2.00049 -0.14031 C 1.99 -0.15 1.99 -0.16 1.98373 -0.16836 C 1.98 -0.18 1.97 -0.19 1.9682 -0.19879 C 1.96 -0.21 1.96 -0.22 1.95414 -0.23146" />
    <path d="M 2.19105 -0.62215 L 2.13423 -0.7837 L 2.0585 -0.96421 L 1.96514 -1.16067 L 1.85567 -1.36982 L 1.73193 -1.5882 L 1.59597 -1.81218 L 1.45004 -2.03804 L 1.29656 -2.26203 L 1.13809 -2.48043 L 0.97725 -2.68962 L 0.81671 -2.88613 L 0.65914 -3.0667 L 0.50715 -3.22833 L 0.36326 -3.36833 C 0.36 -3.37 0.35 -3.38 0.34509 -3.38446 C 0.34 -3.39 0.33 -3.39 0.32668 -3.3995 C 0.32 -3.4 0.32 -3.41 0.31137 -3.41103 C 0.31 -3.41 0.3 -3.42 0.296 -3.42171 C 0.29 -3.43 0.29 -3.43 0.28062 -3.43149 C 0.28 -3.43 0.27 -3.44 0.26527 -3.44033 C 0.26 -3.44 0.26 -3.45 0.25 -3.44819 C 0.24 -3.45 0.24 -3.45 0.23485 -3.45505 C 0.23 -3.46 0.22 -3.46 0.21984 -3.46086 C 0.21 -3.46 0.21 -3.46 0.20502 -3.46562 C 0.2 -3.47 0.19 -3.47 0.18454 -3.47047 C 0.18 -3.47 0.17 -3.47 0.16455 -3.47313 C 0.16 -3.47 0.15 -3.47 0.1451 -3.47357 C 0.14 -3.47 0.13 -3.47 0.12624 -3.47177" />
    <path d="M 1.74138 0.53231 A 1.25 0.4185 180 0 0 2.24546 0.19649" />
    <path d="M 2.19105 -0.62215 L 2.17235 -0.6555 L 2.15296 -0.68892 L 2.13293 -0.72233 L 2.1123 -0.75565 L 2.09112 -0.7888 L 2.06944 -0.82169 L 2.04733 -0.85426 L 2.02482 -0.88642 L 2.00197 -0.91808 L 1.97885 -0.94919 L 1.95551 -0.97965 L 1.93199 -1.00939 L 1.90837 -1.03835 L 1.8847 -1.06646 C 1.88 -1.06 1.88 -1.05 1.8813 -1.04832 C 1.88 -1.04 1.88 -1.04 1.87828 -1.02967 C 1.88 -1.02 1.88 -1.02 1.87567 -1.01054 C 1.87 -1 1.87 -1 1.87349 -0.99094 C 1.87 -0.98 1.87 -0.98 1.87177 -0.97091 C 1.87 -0.96 1.87 -0.96 1.87053 -0.95046 C 1.87 -0.94 1.87 -0.94 1.86978 -0.92964 C 1.87 -0.92 1.87 -0.92 1.86953 -0.90845 C 1.87 -0.9 1.87 -0.9 1.86969 -0.89132 C 1.87 -0.89 1.87 -0.88 1.87017 -0.87401 C 1.87 -0.87 1.87 -0.86 1.87096 -0.85656 C 1.87 -0.85 1.87 -0.84 1.87207 -0.83897 C 1.87 -0.83 1.87 -0.83 1.87348 -0.82126 C 1.87 -0.82 1.87 -0.81 1.87518 -0.80346 C 1.88 -0.8 1.88 -0.79 1.87717 -0.78559 C 1.88 -0.78 1.88 -0.77 1.87942 -0.76767 C 1.88 -0.76 1.88 -0.75 1.88216 -0.74804 C 1.88 -0.74 1.88 -0.73 1.88519 -0.72839 C 1.89 -0.72 1.89 -0.72 1.88847 -0.70874 C 1.89 -0.7 1.89 -0.7 1.89199 -0.68911 C 1.89 -0.68 1.9 -0.67 1.89865 -0.65475 C 1.9 -0.64 1.9 -0.63 1.90583 -0.62062 C 1.91 -0.61 1.91 -0.6 1.91338 -0.58678 C 1.92 -0.58 1.92 -0.56 1.92119 -0.55329 C 1.92 -0.54 1.93 -0.53 1.92913 -0.52023 C 1.93 -0.51 1.93 -0.5 1.93708 -0.48766 C 1.94 -0.48 1.94 -0.47 1.94491 -0.45564 C 1.95 -0.45 1.95 -0.43 1.95253 -0.42424 C 1.97 -0.35 1.99 -0.27 1.99292 -0.2118 C 1.99 -0.19 2 -0.18 1.99546 -0.16271 C 2 -0.16 2 -0.15 1.9952 -0.14871" />
    <path d="M 1.8847 -1.06646 L 1.79077 -1.27403 L 1.67223 -1.50176 L 1.53274 -1.74261 L 1.37662 -1.98912 L 1.20871 -2.23366 L 1.03419 -2.46867 L 0.85848 -2.68686 L 0.68701 -2.88149 L 0.52508 -3.04653 L 0.37771 -3.17687 L 0.24946 -3.26848 L 0.1443 -3.31853 L 0.06549 -3.32546 L 0.01545 -3.28906" />
    <path d="M 1.24399 1.35259 A 1.25 0.4185 180 0 0 1.74806 1.01676" />
    <path d="M 1.69365 0.19813 C 1.7 0.21 1.7 0.23 1.70008 0.24469 C 1.7 0.26 1.7 0.28 1.70688 0.29081 C 1.71 0.31 1.71 0.32 1.71384 0.33627 C 1.72 0.35 1.72 0.37 1.72071 0.38087 C 1.72 0.39 1.72 0.4 1.72567 0.41365 C 1.73 0.42 1.73 0.44 1.73037 0.44576 C 1.73 0.46 1.73 0.47 1.7347 0.4771 C 1.74 0.49 1.74 0.5 1.73857 0.50758 C 1.74 0.52 1.74 0.53 1.74189 0.53711 C 1.74 0.55 1.74 0.56 1.74458 0.56559 C 1.75 0.57 1.75 0.58 1.74655 0.59294 C 1.75 0.6 1.75 0.61 1.74774 0.61906 C 1.75 0.63 1.75 0.63 1.74806 0.64036 L 1.74806 1.01676" />
    <path d="M 1.74806 0.64036 C 1.75 0.65 1.75 0.65 1.7477 0.66112 C 1.75 0.67 1.75 0.67 1.7466 0.68072 C 1.75 0.69 1.75 0.69 1.74472 0.69908 C 1.74 0.7 1.74 0.71 1.74204 0.71614 C 1.74 0.72 1.74 0.73 1.73854 0.73183 C 1.74 0.74 1.74 0.74 1.73421 0.74611 C 1.73 0.75 1.73 0.75 1.72906 0.75892 C 1.73 0.76 1.73 0.77 1.72307 0.77023 C 1.72 0.77 1.72 0.78 1.71711 0.77894 C 1.72 0.78 1.71 0.78 1.71053 0.78642 C 1.71 0.79 1.71 0.79 1.70335 0.79264 C 1.7 0.79 1.7 0.8 1.69561 0.79762 C 1.69 0.8 1.69 0.8 1.68733 0.80133 C 1.68 0.8 1.68 0.8 1.67854 0.80378 C 1.68 0.8 1.67 0.8 1.66929 0.80498 C 1.67 0.81 1.66 0.81 1.6596 0.80493 C 1.66 0.8 1.65 0.8 1.64879 0.8035 C 1.65 0.8 1.64 0.8 1.63761 0.80068 C 1.63 0.8 1.63 0.8 1.62353 0.79537 C 1.62 0.79 1.61 0.79 1.60908 0.78808 C 1.6 0.79 1.6 0.78 1.59437 0.77885 C 1.59 0.78 1.58 0.77 1.5795 0.76773 C 1.57 0.76 1.57 0.76 1.56459 0.75477 C 1.56 0.75 1.55 0.75 1.54975 0.74004 C 1.54 0.73 1.54 0.73 1.53512 0.7236 C 1.53 0.72 1.53 0.71 1.5208 0.70551 C 1.51 0.7 1.51 0.69 1.50309 0.67997 C 1.5 0.67 1.49 0.66 1.48634 0.65192 C 1.48 0.64 1.48 0.63 1.47081 0.62149 C 1.47 0.61 1.46 0.6 1.45675 0.58882" />
    <path d="M 0.74659 2.17286 A 1.25 0.4185 180 0 0 1.25067 1.83704" />
    <path d="M 1.19626 1.0184 C 1.2 1.03 1.2 1.05 1.20268 1.06497 C 1.2 1.08 1.21 1.1 1.20949 1.11109 C 1.21 1.13 1.21 1.14 1.21644 1.15655 C 1.22 1.17 1.22 1.19 1.22331 1.20114 C 1.23 1.21 1.23 1.22 1.22828 1.23392 C 1.23 1.24 1.23 1.26 1.23297 1.26603 C 1.23 1.28 1.24 1.29 1.2373 1.29737 C 1.24 1.31 1.24 1.32 1.24117 1.32786 C 1.24 1.34 1.24 1.35 1.2445 1.35739 C 1.25 1.37 1.25 1.38 1.24718 1.38587 C 1.25 1.4 1.25 1.4 1.24916 1.41322 C 1.25 1.42 1.25 1.43 1.25034 1.43934 C 1.25 1.45 1.25 1.45 1.25067 1.46063 L 1.25067 1.83704" />
    <path d="M 1.25067 1.46063 C 1.25 1.47 1.25 1.47 1.25031 1.4814 C 1.25 1.49 1.25 1.49 1.2492 1.501 C 1.25 1.51 1.25 1.51 1.24732 1.51936 C 1.25 1.53 1.25 1.53 1.24464 1.53641 C 1.24 1.54 1.24 1.55 1.24114 1.55211 C 1.24 1.56 1.24 1.56 1.23682 1.56639 C 1.24 1.57 1.23 1.58 1.23166 1.5792 C 1.23 1.58 1.23 1.59 1.22568 1.5905 C 1.22 1.59 1.22 1.6 1.21971 1.59922 C 1.22 1.6 1.22 1.6 1.21313 1.60669 C 1.21 1.61 1.21 1.61 1.20596 1.61292 C 1.2 1.61 1.2 1.62 1.19822 1.61789 C 1.2 1.62 1.19 1.62 1.18993 1.62161 C 1.19 1.62 1.18 1.62 1.18115 1.62406 C 1.18 1.62 1.18 1.63 1.17189 1.62525 C 1.17 1.63 1.17 1.63 1.1622 1.6252 C 1.16 1.62 1.16 1.62 1.1514 1.62378 C 1.15 1.62 1.14 1.62 1.14021 1.62095 C 1.14 1.62 1.13 1.62 1.12614 1.61565 C 1.12 1.61 1.12 1.61 1.11169 1.60836 C 1.11 1.61 1.1 1.6 1.09697 1.59912 C 1.09 1.6 1.09 1.59 1.0821 1.588 C 1.08 1.58 1.07 1.58 1.06719 1.57505 C 1.06 1.57 1.06 1.57 1.05236 1.56032 C 1.05 1.56 1.04 1.55 1.03772 1.54388 C 1.03 1.54 1.03 1.53 1.02341 1.52578 C 1.02 1.52 1.01 1.51 1.00569 1.50024 C 1 1.49 0.99 1.48 0.98894 1.47219 C 0.98 1.46 0.98 1.45 0.97341 1.44176 C 0.97 1.43 0.96 1.42 0.95935 1.4091" />
    <path d="M 0.2492 2.99314 A 1.25 0.4185 180 0 0 0.75327 2.65732" />
    <path d="M 0.69886 1.83868 C 0.7 1.85 0.7 1.87 0.70529 1.88524 C 0.71 1.9 0.71 1.92 0.71209 1.93136 C 0.71 1.95 0.72 1.96 0.71905 1.97683 C 0.72 1.99 0.72 2.01 0.72592 2.02142 C 0.73 2.03 0.73 2.04 0.73088 2.0542 C 0.73 2.07 0.73 2.08 0.73558 2.08631 C 0.74 2.1 0.74 2.11 0.73991 2.11765 C 0.74 2.13 0.74 2.14 0.74378 2.14813 C 0.74 2.16 0.75 2.17 0.7471 2.17766 C 0.75 2.19 0.75 2.2 0.74979 2.20615 C 0.75 2.22 0.75 2.22 0.75176 2.23349 C 0.75 2.24 0.75 2.25 0.75294 2.25961 C 0.75 2.27 0.75 2.27 0.75327 2.28091 L 0.75327 2.65732" />
    <path d="M 0.75327 2.28091 C 0.75 2.29 0.75 2.29 0.75291 2.30167 C 0.75 2.31 0.75 2.31 0.75181 2.32127 C 0.75 2.33 0.75 2.33 0.74993 2.33963 C 0.75 2.35 0.75 2.35 0.74725 2.35669 C 0.75 2.36 0.75 2.37 0.74375 2.37238 C 0.74 2.38 0.74 2.38 0.73942 2.38666 C 0.74 2.39 0.74 2.4 0.73426 2.39947 C 0.73 2.4 0.73 2.41 0.72828 2.41078 C 0.73 2.41 0.72 2.42 0.72232 2.41949 C 0.72 2.42 0.72 2.42 0.71574 2.42697 C 0.71 2.43 0.71 2.43 0.70856 2.4332 C 0.71 2.44 0.7 2.44 0.70082 2.43817 C 0.7 2.44 0.7 2.44 0.69254 2.44188 C 0.69 2.44 0.69 2.44 0.68375 2.44433 C 0.68 2.44 0.68 2.45 0.67449 2.44553 C 0.67 2.45 0.67 2.45 0.66481 2.44548 C 0.66 2.45 0.66 2.44 0.654 2.44405 C 0.65 2.44 0.65 2.44 0.64282 2.44123 C 0.64 2.44 0.63 2.44 0.62874 2.43593 C 0.62 2.43 0.62 2.43 0.61429 2.42863 C 0.61 2.43 0.6 2.42 0.59958 2.4194 C 0.59 2.42 0.59 2.41 0.58471 2.40828 C 0.58 2.4 0.57 2.4 0.5698 2.39532 C 0.56 2.39 0.56 2.39 0.55496 2.38059 C 0.55 2.38 0.55 2.37 0.54033 2.36415 C 0.54 2.36 0.53 2.35 0.52601 2.34606 C 0.52 2.34 0.51 2.33 0.5083 2.32052 C 0.5 2.31 0.5 2.3 0.49155 2.29247 C 0.49 2.28 0.48 2.27 0.47602 2.26204 C 0.47 2.25 0.47 2.24 0.46195 2.22937" />
    <path d="M -2.24412 2.4327 L -2.24412 3.47759 C -2.24 3.49 -2.24 3.5 -2.24302 3.50758 C -2.24 3.52 -2.24 3.53 -2.23969 3.53748 C -2.24 3.55 -2.24 3.56 -2.23415 3.56719 C -2.23 3.58 -2.23 3.59 -2.2264 3.59661 C -2.22 3.61 -2.22 3.62 -2.21644 3.62566 C -2.21 3.64 -2.21 3.64 -2.20427 3.65425 C -2.2 3.66 -2.2 3.67 -2.18987 3.68231 C -2.18 3.69 -2.18 3.7 -2.17325 3.70976 C -2.17 3.72 -2.16 3.73 -2.15399 3.73707 C -2.15 3.75 -2.14 3.75 -2.1324 3.76363 C -2.13 3.77 -2.12 3.78 -2.11006 3.78772 C -2.1 3.8 -2.09 3.8 -2.08567 3.81105 C -2.08 3.82 -2.07 3.83 -2.05921 3.83358 C -2.05 3.84 -2.04 3.85 -2.0307 3.85526 C -2.02 3.86 -2.02 3.86 -2.01065 3.86918 C -2 3.87 -2 3.88 -1.9897 3.8827 C -1.98 3.89 -1.98 3.89 -1.96788 3.89583 C -1.96 3.9 -1.95 3.9 -1.94518 3.90857 C -1.94 3.91 -1.93 3.92 -1.92163 3.92089 C -1.91 3.92 -1.91 3.93 -1.89723 3.93281 C -1.89 3.94 -1.88 3.94 -1.872 3.94433 C -1.86 3.95 -1.85 3.95 -1.84596 3.95544 C -1.83 3.96 -1.82 3.97 -1.80649 3.97093 C -1.79 3.98 -1.78 3.98 -1.76535 3.98555 C -1.75 3.99 -1.74 3.99 -1.72262 3.9993 C -1.71 4 -1.69 4.01 -1.67835 4.01217 C -1.62 4.03 -1.55 4.04 -1.48751 4.0547 C -1.35 4.08 -1.21 4.09 -1.06016 4.09496 C -0.37 4.09 -0.04 3.93 0.04082 3.85644 C 0.13 3.79 0.23 3.73 0.25588 3.47759" />
    <path d="M 0.25588 3.10119 L 0.25588 3.47759" />
    <path d="M 1.74806 0.71061 C 1.75 0.71 1.75 0.71 1.7485 0.71047 C 1.76 0.71 1.78 0.7 1.78956 0.6965 C 1.8 0.69 1.82 0.69 1.82904 0.68169 C 1.84 0.68 1.85 0.67 1.86691 0.66604 C 1.88 0.66 1.89 0.66 1.90311 0.64955 C 1.91 0.64 1.93 0.64 1.93759 0.63223 C 1.95 0.63 1.96 0.62 1.97033 0.61408 C 1.98 0.61 1.99 0.6 2.00127 0.59511 C 2.01 0.59 2.02 0.58 2.0304 0.57533 C 2.04 0.57 2.05 0.56 2.05926 0.5535 C 2.07 0.55 2.08 0.54 2.08604 0.53082 C 2.09 0.52 2.1 0.52 2.11072 0.50731 C 2.12 0.5 2.13 0.49 2.1333 0.48302 C 2.14 0.47 2.15 0.47 2.15501 0.4564 C 2.16 0.45 2.17 0.44 2.17437 0.429 C 2.18 0.42 2.19 0.41 2.19104 0.40151 C 2.2 0.39 2.2 0.38 2.20548 0.37342 C 2.21 0.36 2.21 0.35 2.21769 0.34478 C 2.22 0.34 2.22 0.33 2.22769 0.31569 C 2.23 0.31 2.23 0.3 2.23546 0.28623 C 2.24 0.28 2.24 0.27 2.24102 0.25647 C 2.24 0.25 2.24 0.24 2.24435 0.22653 C 2.25 0.22 2.25 0.21 2.24546 0.19649" />
    <path d="M 1.25067 1.53088 C 1.25 1.53 1.25 1.53 1.25111 1.53074 C 1.27 1.53 1.28 1.52 1.29216 1.51677 C 1.31 1.51 1.32 1.51 1.33165 1.50196 C 1.34 1.5 1.36 1.49 1.36952 1.48632 C 1.38 1.48 1.39 1.48 1.40571 1.46983 C 1.42 1.46 1.43 1.46 1.4402 1.45251 C 1.45 1.45 1.46 1.44 1.47293 1.43436 C 1.48 1.43 1.49 1.42 1.50388 1.41539 C 1.51 1.41 1.52 1.4 1.533 1.39561 C 1.54 1.39 1.55 1.38 1.56187 1.37378 C 1.57 1.37 1.58 1.36 1.58864 1.35109 C 1.6 1.34 1.61 1.34 1.61332 1.32759 C 1.62 1.32 1.63 1.31 1.6359 1.3033 C 1.64 1.29 1.65 1.29 1.65761 1.27667 C 1.66 1.27 1.67 1.26 1.67697 1.24928 C 1.68 1.24 1.69 1.23 1.69364 1.22179 C 1.7 1.21 1.7 1.2 1.70808 1.19369 C 1.71 1.18 1.72 1.17 1.7203 1.16506 C 1.72 1.16 1.73 1.15 1.73029 1.13597 C 1.73 1.13 1.74 1.12 1.73806 1.1065 C 1.74 1.1 1.74 1.09 1.74362 1.07675 C 1.75 1.07 1.75 1.06 1.74695 1.0468 C 1.75 1.04 1.75 1.03 1.74806 1.01676" />
    <path d="M 0.75327 2.35116 C 0.75 2.35 0.75 2.35 0.75371 2.35102 C 0.77 2.35 0.78 2.34 0.79477 2.33705 C 0.81 2.33 0.82 2.33 0.83425 2.32224 C 0.85 2.32 0.86 2.31 0.87212 2.30659 C 0.88 2.3 0.9 2.3 0.90832 2.29011 C 0.92 2.28 0.93 2.28 0.9428 2.27278 C 0.95 2.27 0.96 2.26 0.97553 2.25463 C 0.99 2.25 1 2.24 1.00648 2.23566 C 1.02 2.23 1.03 2.22 1.03561 2.21588 C 1.05 2.21 1.06 2.2 1.06447 2.19406 C 1.07 2.19 1.08 2.18 1.09125 2.17137 C 1.1 2.16 1.11 2.16 1.11593 2.14786 C 1.12 2.14 1.13 2.13 1.13851 2.12357 C 1.15 2.11 1.15 2.11 1.16022 2.09695 C 1.17 2.09 1.17 2.08 1.17957 2.06955 C 1.19 2.06 1.19 2.05 1.19624 2.04207 C 1.2 2.03 1.21 2.02 1.21068 2.01397 C 1.22 2 1.22 1.99 1.2229 1.98534 C 1.23 1.98 1.23 1.97 1.23289 1.95624 C 1.24 1.95 1.24 1.94 1.24067 1.92678 C 1.24 1.92 1.24 1.91 1.24622 1.89703 C 1.25 1.89 1.25 1.88 1.24956 1.86708 C 1.25 1.86 1.25 1.85 1.25067 1.83704" />
    <path d="M 0.25588 3.17144 C 0.26 3.17 0.26 3.17 0.25631 3.1713 C 0.27 3.17 0.28 3.16 0.29737 3.15733 C 0.31 3.15 0.32 3.15 0.33686 3.14252 C 0.35 3.14 0.36 3.13 0.37472 3.12687 C 0.39 3.12 0.4 3.12 0.41092 3.11038 C 0.42 3.1 0.43 3.1 0.44541 3.09306 C 0.46 3.09 0.47 3.08 0.47814 3.07491 C 0.49 3.07 0.5 3.06 0.50908 3.05594 C 0.52 3.05 0.53 3.04 0.53821 3.03616 C 0.55 3.03 0.56 3.02 0.56708 3.01433 C 0.58 3.01 0.59 3 0.59385 2.99165 C 0.6 2.98 0.61 2.98 0.61853 2.96814 C 0.63 2.96 0.63 2.95 0.64111 2.94385 C 0.65 2.94 0.66 2.93 0.66282 2.91723 C 0.67 2.91 0.68 2.9 0.68218 2.88983 C 0.69 2.88 0.69 2.87 0.69885 2.86234 C 0.7 2.85 0.71 2.84 0.71329 2.83425 C 0.72 2.82 0.72 2.82 0.7255 2.80561 C 0.73 2.8 0.73 2.79 0.7355 2.77652 C 0.74 2.77 0.74 2.76 0.74327 2.74705 C 0.75 2.74 0.75 2.73 0.74883 2.7173 C 0.75 2.71 0.75 2.7 0.75216 2.68736 C 0.75 2.68 0.75 2.67 0.75327 2.65732" />
</svg>