<svg version="1.1" xmlns="http://www.w3.org/2000/svg" viewBox="-3.2231260514512083 -4.680005448796084 6.273660516406711 9.318992674415744" fill="none" stroke="black" stroke-width="0.6%" vector-effect="non-scaling-stroke">
    <path d="M -2.22313 -0.6252 L -1.98626 -0.58554 L -1.98626 0.10911 L -1.98626 2.01938" />
    <path d="M -2.22313 1.97971 L -1.98626 2.01938" />
    <path d="M -2.22313 -0.6252 L -2.22313 1.97971" />
    <path d="M -0.14387 -3.68 L 0.09299 -3.64034" />
    <path d="M -1.98626 -0.58554 L 0.09299 -3.64034" />
    <path d="M -0.14387 -3.68 L -2.22313 -0.6252" />
    <path d="M -1.74635 -0.44163 L -1.92447 -0.17993 C -1.93 -0.17 -1.93 -0.17 -1.92745 -0.16243 C -1.93 -0.16 -1.93 -0.15 -1.92998 -0.14483 C -1.93 -0.14 -1.93 -0.13 -1.93207 -0.12715 C -1.93 -0.12 -1.93 -0.12 -1.93372 -0.10939 C -1.93 -0.1 -1.94 -0.09 -1.93569 -0.07366 C -1.94 -0.06 -1.94 -0.05 -1.93592 -0.03774 C -1.94 -0.03 -1.94 -0.02 -1.93502 -0.01214 C -1.93 0 -1.93 0 -1.93327 0.01345 C -1.93 0.02 -1.93 0.03 -1.93067 0.03897 C -1.93 0.05 -1.93 0.06 -1.92724 0.06438 C -1.93 0.07 -1.92 0.08 -1.923 0.08962 C -1.92 0.1 -1.92 0.11 -1.91797 0.11461 C -1.92 0.12 -1.91 0.13 -1.91218 0.13929 C -1.91 0.15 -1.91 0.16 -1.90565 0.1636 C -1.9 0.17 -1.9 0.18 -1.8968 0.19245 C -1.89 0.2 -1.89 0.21 -1.88698 0.2205 L -1.79885 0.43868 L -1.69412 0.66472 L -1.57453 0.89486 L -1.44207 1.1253 L -1.29893 1.35219 L -1.14749 1.57179 L -0.99027 1.78043 L -0.82987 1.97466 L -0.66895 2.15126 L -0.51019 2.30729 L -0.35623 2.44016 L -0.20961 2.54767 L -0.07277 2.62804 L 0.05202 2.67992" />
    <path d="M -1.56822 -0.70333 L -1.74635 -0.44163 L -1.75353 -0.43034 L -1.7602 -0.41832 L -1.76634 -0.40557 L -1.77197 -0.39212 L -1.77706 -0.37796 L -1.78163 -0.3631 L -1.78567 -0.34756 L -1.78917 -0.33133 L -1.79214 -0.31443 L -1.79457 -0.29686 L -1.79646 -0.27864 L -1.79781 -0.25978 L -1.79862 -0.24028 L -1.79889 -0.22016 L -1.78722 -0.07318 L -1.7525 0.09679 L -1.69552 0.28579 L -1.61763 0.4894 L -1.52063 0.70287 L -1.40679 0.92123 L -1.27877 1.13938 L -1.13955 1.35222 L -0.99238 1.5548 L -0.8407 1.74238 L -0.68804 1.9106 L -0.53797 2.05551 L -0.39399 2.17375 L -0.25945 2.26256 L -0.24066 2.29682 L -0.22113 2.33071 L -0.20091 2.36415 L -0.18005 2.39705 L -0.15861 2.42934 L -0.13662 2.46093 L -0.11415 2.49175 L -0.09125 2.52173 L -0.06797 2.55079 L -0.04438 2.57886 L -0.02053 2.60587 L 0.00353 2.63176 L 0.02773 2.65646 L 0.05202 2.67992" />
    <path d="M -1.18655 -1.06582 L -1.18655 -0.57058" />
    <path d="M -1.18655 -1.06582 C -1.19 -1.07 -1.19 -1.08 -1.18613 -1.0853 C -1.19 -1.09 -1.19 -1.1 -1.18487 -1.10589 C -1.18 -1.11 -1.18 -1.12 -1.18278 -1.12747 C -1.18 -1.13 -1.18 -1.14 -1.17985 -1.1499 C -1.18 -1.16 -1.18 -1.17 -1.17612 -1.17305 C -1.17 -1.18 -1.17 -1.19 -1.17157 -1.1968 C -1.17 -1.2 -1.17 -1.21 -1.16624 -1.22103 C -1.16 -1.23 -1.16 -1.24 -1.16013 -1.24563 C -1.16 -1.25 -1.16 -1.26 -1.15259 -1.27277 C -1.15 -1.28 -1.15 -1.29 -1.14417 -1.30009 C -1.14 -1.3 -1.14 -1.31 -1.13963 -1.31378 C -1.14 -1.32 -1.14 -1.32 -1.13489 -1.32748 C -1.13 -1.33 -1.13 -1.34 -1.12993 -1.34118 C -1.13 -1.35 -1.13 -1.35 -1.12476 -1.35486 C -1.13 -1.35 -1.13 -1.34 -1.12774 -1.33735 C -1.13 -1.33 -1.13 -1.33 -1.13027 -1.31976 C -1.13 -1.31 -1.13 -1.31 -1.13236 -1.30207 C -1.13 -1.3 -1.13 -1.29 -1.13401 -1.28431 C -1.13 -1.27 -1.14 -1.26 -1.13598 -1.24858 C -1.14 -1.24 -1.14 -1.22 -1.13621 -1.21266 C -1.14 -1.2 -1.14 -1.2 -1.13531 -1.18706 C -1.13 -1.18 -1.13 -1.17 -1.13356 -1.16148 C -1.13 -1.15 -1.13 -1.14 -1.13096 -1.13595 C -1.13 -1.13 -1.13 -1.12 -1.12753 -1.11054 C -1.13 -1.1 -1.12 -1.09 -1.12329 -1.08531 C -1.12 -1.08 -1.12 -1.07 -1.11826 -1.06031 C -1.12 -1.05 -1.11 -1.04 -1.11246 -1.03563 C -1.11 -1.03 -1.11 -1.02 -1.10594 -1.01132 C -1.1 -1 -1.1 -0.99 -1.09709 -0.98248 C -1.09 -0.97 -1.09 -0.96 -1.08727 -0.95443 L -1.0537 -0.8673 L -1.01725 -0.77852 L -0.97804 -0.68835 L -0.93616 -0.59701 L -0.89173 -0.50476 L -0.84487 -0.41186 L -0.7957 -0.31855 L -0.74437 -0.22508 L -0.69101 -0.13172 L -0.63577 -0.03872 L -0.57879 0.05368 L -0.52024 0.14521 L -0.46026 0.23563 L -0.39903 0.3247 L -0.46135 0.23723 L -0.52459 0.1516 L -0.58857 0.06804 L -0.65313 -0.01322 L -0.71808 -0.09196 L -0.78325 -0.16796 L -0.84847 -0.24103 L -0.91355 -0.31096 L -0.97831 -0.37755 L -1.04259 -0.44064 L -1.10621 -0.50004 L -1.16899 -0.5556 L -1.23076 -0.60716 L -1.29136 -0.65459 C -1.3 -0.66 -1.3 -0.66 -1.31085 -0.66842 C -1.32 -0.67 -1.32 -0.68 -1.33088 -0.68084 C -1.34 -0.68 -1.34 -0.69 -1.34775 -0.68996 C -1.35 -0.69 -1.36 -0.7 -1.36486 -0.69801 C -1.37 -0.7 -1.38 -0.7 -1.38218 -0.70495 C -1.39 -0.71 -1.39 -0.71 -1.39965 -0.71074 C -1.41 -0.71 -1.41 -0.71 -1.41724 -0.71536 C -1.42 -0.72 -1.43 -0.72 -1.43489 -0.71877 C -1.44 -0.72 -1.45 -0.72 -1.45257 -0.72095 C -1.46 -0.72 -1.46 -0.72 -1.47025 -0.72189 C -1.48 -0.72 -1.49 -0.72 -1.49504 -0.72107 C -1.5 -0.72 -1.51 -0.72 -1.51967 -0.71771 C -1.53 -0.72 -1.54 -0.71 -1.54408 -0.71181 C -1.55 -0.71 -1.55 -0.71 -1.55618 -0.70789 C -1.56 -0.71 -1.56 -0.7 -1.56822 -0.70333" />
    <path d="M -0.94664 -1.61656 L -1.12476 -1.35486" />
    <path d="M -0.76851 -1.87826 L -0.94664 -1.61656 L -0.95382 -1.60526 L -0.96048 -1.59324 L -0.96663 -1.5805 L -0.97225 -1.56704 L -0.97735 -1.55288 L -0.98192 -1.53803 L -0.98596 -1.52248 L -0.98946 -1.50625 L -0.99242 -1.48935 L -0.99485 -1.47179 L -0.99675 -1.45357 L -0.9981 -1.4347 L -0.99891 -1.41521 L -0.99918 -1.39509 L -0.98751 -1.24811 L -0.95279 -1.07813 L -0.89581 -0.88914 L -0.81791 -0.68552 L -0.72091 -0.47205 L -0.60708 -0.25369 L -0.47905 -0.03554 L -0.33983 0.1773 L -0.19267 0.37988 L -0.04098 0.56746 L 0.11167 0.73567 L 0.26174 0.88059 L 0.40573 0.99883 L 0.54026 1.08763 L 0.55905 1.1219 L 0.57858 1.15579 L 0.5988 1.18923 L 0.61966 1.22213 L 0.64111 1.25441 L 0.66309 1.28601 L 0.68556 1.31683 L 0.70847 1.34681 L 0.73174 1.37586 L 0.75533 1.40393 L 0.77919 1.43095 L 0.80324 1.45684 L 0.82744 1.48154 L 0.85173 1.505" />
    <path d="M -0.38684 -2.24074 L -0.38684 -1.7455" />
    <path d="M -0.38684 -2.24074 C -0.39 -2.25 -0.39 -2.25 -0.38642 -2.26022 C -0.39 -2.27 -0.39 -2.27 -0.38516 -2.28082 C -0.38 -2.29 -0.38 -2.3 -0.38306 -2.30239 C -0.38 -2.31 -0.38 -2.32 -0.38014 -2.32482 C -0.38 -2.33 -0.38 -2.34 -0.3764 -2.34797 C -0.38 -2.36 -0.37 -2.36 -0.37186 -2.37173 C -0.37 -2.38 -0.37 -2.39 -0.36652 -2.39596 C -0.36 -2.4 -0.36 -2.41 -0.36041 -2.42055 C -0.36 -2.43 -0.36 -2.44 -0.35288 -2.44769 C -0.35 -2.46 -0.35 -2.47 -0.34446 -2.47501 C -0.34 -2.48 -0.34 -2.48 -0.33992 -2.4887 C -0.34 -2.49 -0.34 -2.5 -0.33517 -2.5024 C -0.33 -2.51 -0.33 -2.51 -0.33022 -2.5161 C -0.33 -2.52 -0.33 -2.53 -0.32505 -2.52978 C -0.33 -2.52 -0.33 -2.52 -0.32803 -2.51228 C -0.33 -2.51 -0.33 -2.5 -0.33056 -2.49468 C -0.33 -2.49 -0.33 -2.48 -0.33265 -2.477 C -0.33 -2.47 -0.33 -2.47 -0.3343 -2.45923 C -0.34 -2.45 -0.34 -2.44 -0.33627 -2.42351 C -0.34 -2.41 -0.34 -2.4 -0.33649 -2.38758 C -0.34 -2.38 -0.34 -2.37 -0.3356 -2.36199 C -0.34 -2.35 -0.33 -2.34 -0.33385 -2.3364 C -0.33 -2.33 -0.33 -2.32 -0.33125 -2.31087 C -0.33 -2.3 -0.33 -2.29 -0.32782 -2.28546 C -0.33 -2.28 -0.33 -2.27 -0.32357 -2.26023 C -0.32 -2.25 -0.32 -2.24 -0.31854 -2.23524 C -0.32 -2.23 -0.31 -2.22 -0.31275 -2.21055 C -0.31 -2.2 -0.31 -2.19 -0.30623 -2.18625 C -0.3 -2.18 -0.3 -2.17 -0.29738 -2.1574 C -0.29 -2.15 -0.29 -2.14 -0.28756 -2.12935 L -0.25399 -2.04222 L -0.21754 -1.95345 L -0.17833 -1.86327 L -0.13645 -1.77193 L -0.09202 -1.67969 L -0.04516 -1.58678 L 0.00401 -1.49347 L 0.05534 -1.40001 L 0.1087 -1.30664 L 0.16394 -1.21364 L 0.22092 -1.12125 L 0.27948 -1.02971 L 0.33945 -0.93929 L 0.40068 -0.85023 L 0.33836 -0.93769 L 0.27512 -1.02332 L 0.21114 -1.10688 L 0.14659 -1.18814 L 0.08163 -1.26688 L 0.01646 -1.34289 L -0.04875 -1.41595 L -0.11383 -1.48588 L -0.1786 -1.55248 L -0.24288 -1.61556 L -0.3065 -1.67497 L -0.36928 -1.73052 L -0.43105 -1.78209 L -0.49164 -1.82951 C -0.5 -1.83 -0.5 -1.84 -0.51114 -1.84335 C -0.52 -1.85 -0.52 -1.85 -0.53117 -1.85576 C -0.54 -1.86 -0.54 -1.86 -0.54803 -1.86488 C -0.55 -1.87 -0.56 -1.87 -0.56515 -1.87293 C -0.57 -1.88 -0.58 -1.88 -0.58247 -1.87987 C -0.59 -1.88 -0.59 -1.88 -0.59994 -1.88566 C -0.61 -1.89 -0.61 -1.89 -0.61752 -1.89028 C -0.62 -1.89 -0.63 -1.89 -0.63518 -1.89369 C -0.64 -1.89 -0.65 -1.9 -0.65286 -1.89588 C -0.66 -1.9 -0.66 -1.9 -0.67053 -1.89681 C -0.68 -1.9 -0.69 -1.9 -0.69532 -1.89599 C -0.7 -1.9 -0.71 -1.89 -0.71995 -1.89264 C -0.73 -1.89 -0.74 -1.89 -0.74436 -1.88673 C -0.75 -1.89 -0.75 -1.88 -0.75647 -1.88281 C -0.76 -1.88 -0.76 -1.88 -0.76851 -1.87826" />
    <path d="M -0.14692 -2.79148 L -0.32505 -2.52978" />
    <path d="M 0.0312 -3.05318 L -0.14692 -2.79148 L -0.15411 -2.78018 L -0.16077 -2.76816 L -0.16692 -2.75542 L -0.17254 -2.74197 L -0.17764 -2.72781 L -0.18221 -2.71295 L -0.18624 -2.6974 L -0.18975 -2.68117 L -0.19271 -2.66427 L -0.19514 -2.64671 L -0.19703 -2.62849 L -0.19838 -2.60963 L -0.1992 -2.59013 L -0.19947 -2.57001 L -0.1878 -2.42303 L -0.15307 -2.25306 L -0.0961 -2.06406 L -0.0182 -1.86045 L 0.0788 -1.64697 L 0.19264 -1.42861 L 0.32066 -1.21047 L 0.45988 -0.99762 L 0.60705 -0.79504 L 0.75873 -0.60746 L 0.91138 -0.43925 L 1.06146 -0.29433 L 1.20544 -0.17609 L 1.33997 -0.08729 L 1.35877 -0.05303 L 1.37829 -0.01913 L 1.39851 0.0143 L 1.41937 0.04721 L 1.44082 0.07949 L 1.46281 0.11108 L 1.48528 0.14191 L 1.50818 0.17188 L 1.53145 0.20094 L 1.55505 0.22901 L 1.5789 0.25602 L 1.60295 0.28191 L 1.62715 0.30662 L 1.65144 0.33008" />
    <path d="M 0.09299 -3.06968 L 0.09299 -3.64034" />
    <path d="M -1.98626 0.10911 C -1.99 0.1 -1.99 0.1 -1.98584 0.08962 C -1.99 0.08 -1.99 0.08 -1.98458 0.06903 C -1.98 0.06 -1.98 0.05 -1.98249 0.04745 C -1.98 0.04 -1.98 0.03 -1.97957 0.02503 C -1.98 0.02 -1.98 0.01 -1.97583 0.00187 C -1.97 -0.01 -1.97 -0.01 -1.97128 -0.02188 C -1.97 -0.03 -1.97 -0.04 -1.96595 -0.04611 C -1.96 -0.05 -1.96 -0.06 -1.95984 -0.0707 C -1.96 -0.08 -1.95 -0.09 -1.9523 -0.09784 C -1.95 -0.11 -1.95 -0.12 -1.94388 -0.12517 C -1.94 -0.13 -1.94 -0.13 -1.93935 -0.13886 C -1.94 -0.14 -1.94 -0.15 -1.9346 -0.15256 C -1.93 -0.16 -1.93 -0.16 -1.92964 -0.16625 C -1.93 -0.17 -1.93 -0.18 -1.92447 -0.17993" />
    <path d="M 0.43291 2.12031 C 0.43 2.14 0.44 2.15 0.43657 2.16762 C 0.44 2.18 0.44 2.2 0.44022 2.21509 C 0.44 2.23 0.44 2.25 0.44366 2.26251 C 0.44 2.28 0.45 2.29 0.44667 2.30961 C 0.45 2.32 0.45 2.33 0.4485 2.3439 C 0.45 2.36 0.45 2.37 0.4499 2.37783 C 0.45 2.39 0.45 2.4 0.45079 2.4113 C 0.45 2.42 0.45 2.43 0.45111 2.4442 C 0.45 2.46 0.45 2.47 0.45074 2.47782 C 0.45 2.49 0.45 2.5 0.44957 2.51061 C 0.45 2.52 0.45 2.53 0.44754 2.54246 C 0.45 2.55 0.45 2.56 0.44457 2.57327 C 0.44 2.58 0.44 2.59 0.44075 2.60186 C 0.44 2.61 0.44 2.62 0.43596 2.62924 C 0.43 2.64 0.43 2.65 0.43015 2.65531 C 0.43 2.66 0.43 2.67 0.42331 2.67993 C 0.42 2.69 0.42 2.7 0.41541 2.703 C 0.41 2.71 0.41 2.72 0.40645 2.72442 C 0.4 2.73 0.4 2.74 0.39645 2.7441 C 0.39 2.75 0.39 2.76 0.38543 2.76197 C 0.38 2.77 0.38 2.77 0.37342 2.77794 C 0.37 2.78 0.36 2.79 0.36049 2.79195 C 0.36 2.8 0.35 2.8 0.34669 2.80396 C 0.34 2.81 0.34 2.81 0.33209 2.81394 C 0.33 2.82 0.32 2.82 0.31678 2.82187 C 0.31 2.82 0.31 2.83 0.30085 2.82775 C 0.3 2.83 0.29 2.83 0.28438 2.83159 C 0.28 2.83 0.27 2.83 0.26751 2.8334 C 0.26 2.83 0.26 2.83 0.25114 2.83327 C 0.25 2.83 0.24 2.83 0.23458 2.83136 C 0.23 2.83 0.23 2.83 0.2207 2.82844 C 0.22 2.83 0.21 2.83 0.2068 2.82434 C 0.2 2.82 0.2 2.82 0.19293 2.81906 C 0.19 2.82 0.18 2.81 0.17915 2.81265 C 0.17 2.81 0.16 2.8 0.15207 2.7965 C 0.14 2.79 0.13 2.78 0.126 2.7761 C 0.12 2.77 0.11 2.76 0.10536 2.75597 C 0.1 2.75 0.09 2.74 0.08597 2.73315 C 0.08 2.73 0.07 2.72 0.06811 2.70776 C 0.06 2.7 0.06 2.69 0.05202 2.67992" />
    <path d="M 0.43291 2.12031 L 0.413 2.01537 L 0.38595 1.90392 L 0.35192 1.78664 L 0.31113 1.66422 L 0.2638 1.53736 L 0.21021 1.40683 L 0.15068 1.27338 L 0.08557 1.13781 L 0.01525 1.00091 L -0.05987 0.86349 L -0.13933 0.72635 L -0.22268 0.59031 L -0.30942 0.45616 L -0.39903 0.3247 L -0.30706 0.4527 L -0.21328 0.5765 L -0.11823 0.69535 L -0.02249 0.80857 L 0.0734 0.91548 L 0.16885 1.01545 L 0.26332 1.1079 L 0.35624 1.19228 L 0.44707 1.2681 L 0.53527 1.33491 L 0.62033 1.39231 L 0.70174 1.43997 L 0.77902 1.47761 L 0.85173 1.505" />
    <path d="M -2.04889 2.86754 A 1.25 0.62004 180 0 0 0.45111 2.86754" />
    <path d="M -1.88698 0.2205 A 1.25 0.62004 360 0 1 -1.98626 0.10911" />
    <path d="M 0.40068 -0.85023 L 0.49265 -0.72222 L 0.58643 -0.59843 L 0.68148 -0.47957 L 0.77723 -0.36636 L 0.87311 -0.25945 L 0.96856 -0.15947 L 1.06303 -0.06702 L 1.15595 0.01736 L 1.24678 0.09318 L 1.33498 0.15998 L 1.42004 0.21739 L 1.50145 0.26505 L 1.57874 0.30268 L 1.65144 0.33008" />
    <path d="M -0.28756 -2.12935 A 1.25 0.62004 360 0 1 -0.38684 -2.24074" />
    <path d="M -1.08727 -0.95443 A 1.25 0.62004 360 0 1 -1.18655 -1.06582" />
    <path d="M 1.23263 0.94539 L 1.21271 0.84044 L 1.18566 0.729 L 1.15164 0.61172 L 1.11084 0.48929 L 1.06351 0.36244 L 1.00992 0.2319 L 0.95039 0.09846 L 0.88528 -0.03711 L 0.81496 -0.17401 L 0.73984 -0.31144 L 0.66038 -0.44857 L 0.57703 -0.58461 L 0.4903 -0.71876 L 0.40068 -0.85023" />
    <path d="M 1.23263 0.94539 L 1.2161 0.91053 L 1.19871 0.87582 L 1.18051 0.84133 L 1.16154 0.80715 L 1.14184 0.77336 L 1.12146 0.74004 L 1.10045 0.70728 L 1.07887 0.67515 L 1.05676 0.64374 L 1.03418 0.61312 L 1.01119 0.58336 L 0.98783 0.55453 L 0.96417 0.52671 L 0.94026 0.49996 C 0.94 0.5 0.94 0.51 0.93771 0.51526 C 0.94 0.52 0.94 0.53 0.93543 0.53121 C 0.93 0.54 0.93 0.54 0.93345 0.54778 C 0.93 0.55 0.93 0.56 0.93179 0.56497 C 0.93 0.57 0.93 0.58 0.93047 0.58275 C 0.93 0.59 0.93 0.59 0.92952 0.60109 C 0.93 0.61 0.93 0.61 0.92894 0.61999 C 0.93 0.63 0.93 0.63 0.92875 0.63941 C 0.93 0.64 0.93 0.65 0.92887 0.65526 C 0.93 0.66 0.93 0.67 0.92924 0.6714 C 0.93 0.68 0.93 0.68 0.92985 0.6878 C 0.93 0.69 0.93 0.7 0.9307 0.70445 C 0.93 0.71 0.93 0.72 0.93178 0.72132 C 0.93 0.73 0.93 0.73 0.93308 0.7384 C 0.93 0.74 0.93 0.75 0.93458 0.75567 C 0.94 0.76 0.94 0.77 0.93629 0.7731 C 0.94 0.78 0.94 0.79 0.93836 0.79232 C 0.94 0.8 0.94 0.81 0.94063 0.81169 C 0.94 0.82 0.94 0.82 0.94308 0.83118 C 0.94 0.84 0.94 0.84 0.94568 0.85079 C 0.95 0.86 0.95 0.87 0.95058 0.88539 C 0.95 0.9 0.95 0.91 0.95577 0.92012 C 0.96 0.93 0.96 0.94 0.96113 0.9549 C 0.96 0.97 0.96 0.98 0.96656 0.98965 C 0.97 1 0.97 1.01 0.97193 1.02429 C 0.97 1.04 0.98 1.05 0.97714 1.05874 C 0.98 1.07 0.98 1.08 0.98206 1.09291 C 0.98 1.1 0.99 1.12 0.98661 1.12673 C 0.99 1.16 0.99 1.19 0.99693 1.22403 C 1 1.26 1 1.29 1.00082 1.31563 C 1 1.32 1 1.33 1.00046 1.34074 C 1 1.35 1 1.36 0.99937 1.36513 C 1 1.37 1 1.38 0.99708 1.39275 C 1 1.4 1 1.41 0.99368 1.4192 C 0.99 1.43 0.99 1.44 0.98911 1.44436 C 0.99 1.45 0.99 1.46 0.98336 1.46813 C 0.98 1.48 0.98 1.48 0.9764 1.4904 C 0.97 1.5 0.97 1.5 0.96822 1.51109 C 0.97 1.52 0.96 1.52 0.95885 1.5301 C 0.96 1.54 0.95 1.54 0.94828 1.54738 C 0.95 1.55 0.94 1.56 0.93983 1.55885 C 0.94 1.56 0.93 1.57 0.93079 1.56934 C 0.93 1.57 0.92 1.58 0.92118 1.57881 C 0.92 1.58 0.91 1.58 0.91102 1.58726" />
    <path d="M 0.94026 0.49996 L 0.86566 0.27555 L 0.7643 0.03448 L 0.6393 -0.2158 L 0.49455 -0.46753 L 0.33451 -0.71292 L 0.16414 -0.94437 L -0.01128 -1.15473 L -0.18632 -1.33749 L -0.35558 -1.48698 L -0.5138 -1.59858 L -0.6561 -1.66884 L -0.77806 -1.69557 L -0.87591 -1.67797 L -0.94664 -1.61656" />
    <path d="M 0.43291 2.12031 L 0.41639 2.08546 L 0.399 2.05074 L 0.3808 2.01625 L 0.36183 1.98207 L 0.34213 1.94828 L 0.32175 1.91496 L 0.30074 1.8822 L 0.27916 1.85008 L 0.25705 1.81866 L 0.23447 1.78804 L 0.21147 1.75828 L 0.18812 1.72945 L 0.16446 1.70163 L 0.14055 1.67489 C 0.14 1.68 0.14 1.68 0.138 1.69019 C 0.14 1.7 0.14 1.7 0.13572 1.70613 C 0.14 1.71 0.13 1.72 0.13373 1.72271 C 0.13 1.73 0.13 1.73 0.13207 1.73989 C 0.13 1.75 0.13 1.75 0.13076 1.75767 C 0.13 1.76 0.13 1.77 0.12981 1.77602 C 0.13 1.78 0.13 1.79 0.12923 1.79491 C 0.13 1.8 0.13 1.81 0.12904 1.81433 C 0.13 1.82 0.13 1.82 0.12916 1.83019 C 0.13 1.84 0.13 1.84 0.12953 1.84632 C 0.13 1.85 0.13 1.86 0.13014 1.86272 C 0.13 1.87 0.13 1.87 0.13099 1.87937 C 0.13 1.88 0.13 1.89 0.13207 1.89624 C 0.13 1.9 0.13 1.91 0.13336 1.91333 C 0.13 1.92 0.13 1.92 0.13487 1.93059 C 0.14 1.94 0.14 1.94 0.13657 1.94802 C 0.14 1.95 0.14 1.96 0.13864 1.96724 C 0.14 1.97 0.14 1.98 0.14091 1.98661 C 0.14 1.99 0.14 2 0.14336 2.00611 C 0.14 2.01 0.15 2.02 0.14597 2.02571 C 0.15 2.04 0.15 2.05 0.15087 2.06031 C 0.15 2.07 0.15 2.08 0.15606 2.09504 C 0.16 2.11 0.16 2.12 0.16142 2.12982 C 0.16 2.14 0.17 2.15 0.16685 2.16458 C 0.17 2.18 0.17 2.19 0.17222 2.19922 C 0.17 2.21 0.18 2.22 0.17742 2.23366 C 0.18 2.25 0.18 2.26 0.18235 2.26783 C 0.18 2.28 0.19 2.29 0.1869 2.30165 C 0.19 2.33 0.19 2.37 0.19722 2.39895 C 0.2 2.43 0.2 2.46 0.20111 2.49055 C 0.2 2.5 0.2 2.51 0.20075 2.51566 C 0.2 2.52 0.2 2.53 0.19965 2.54005 C 0.2 2.55 0.2 2.56 0.19737 2.56768 C 0.2 2.58 0.2 2.59 0.19397 2.59413 C 0.19 2.6 0.19 2.61 0.1894 2.61929 C 0.19 2.63 0.19 2.64 0.18365 2.64305 C 0.18 2.65 0.18 2.66 0.17669 2.66532 C 0.17 2.67 0.17 2.68 0.16851 2.68601 C 0.17 2.69 0.16 2.7 0.15913 2.70503 C 0.16 2.71 0.15 2.72 0.14857 2.7223 C 0.15 2.73 0.14 2.73 0.14012 2.73378 C 0.14 2.74 0.13 2.74 0.13108 2.74426 C 0.13 2.75 0.12 2.75 0.12147 2.75373 C 0.12 2.76 0.11 2.76 0.11131 2.76218" />
    <path d="M 0.14055 1.67489 L 0.06595 1.45047 L -0.03542 1.2094 L -0.16041 0.95913 L -0.30517 0.7074 L -0.4652 0.46201 L -0.63557 0.23055 L -0.81099 0.02019 L -0.98604 -0.16257 L -1.15529 -0.31206 L -1.31351 -0.42366 L -1.45581 -0.49391 L -1.57777 -0.52065 L -1.67563 -0.50304 L -1.74635 -0.44163" />
    <path d="M 2.03234 -0.22953 C 2.03 -0.21 2.03 -0.2 2.03599 -0.18223 C 2.04 -0.17 2.04 -0.15 2.03964 -0.13475 C 2.04 -0.12 2.04 -0.1 2.04308 -0.08734 C 2.04 -0.07 2.05 -0.06 2.0461 -0.04023 C 2.05 -0.03 2.05 -0.02 2.04792 -0.00595 C 2.05 0.01 2.05 0.02 2.04932 0.02798 C 2.05 0.04 2.05 0.05 2.05022 0.06145 C 2.05 0.07 2.05 0.08 2.05053 0.09436 L 2.05053 0.51769" />
    <path d="M 2.05053 0.09436 C 2.05 0.11 2.05 0.12 2.05016 0.12798 C 2.05 0.14 2.05 0.15 2.049 0.16077 C 2.05 0.17 2.05 0.18 2.04696 0.19262 C 2.05 0.2 2.05 0.21 2.04399 0.22342 C 2.04 0.23 2.04 0.24 2.04018 0.25201 C 2.04 0.26 2.04 0.27 2.03539 0.2794 C 2.03 0.29 2.03 0.3 2.02958 0.30546 C 2.03 0.31 2.03 0.32 2.02273 0.33008 C 2.02 0.34 2.02 0.35 2.01483 0.35315 C 2.01 0.36 2.01 0.37 2.00588 0.37457 C 2 0.38 2 0.39 1.99588 0.39426 C 1.99 0.4 1.99 0.41 1.98485 0.41213 C 1.98 0.42 1.98 0.42 1.97285 0.4281 C 1.97 0.43 1.96 0.44 1.95991 0.44211 C 1.96 0.45 1.95 0.45 1.94611 0.45411 C 1.94 0.46 1.94 0.46 1.93152 0.46409 C 1.93 0.47 1.92 0.47 1.91621 0.47203 C 1.91 0.47 1.91 0.48 1.90027 0.47791 C 1.89 0.48 1.89 0.48 1.88381 0.48174 C 1.88 0.48 1.87 0.48 1.86693 0.48356 C 1.86 0.48 1.86 0.48 1.85056 0.48342 C 1.85 0.48 1.84 0.48 1.834 0.48152 C 1.83 0.48 1.82 0.48 1.82012 0.4786 C 1.82 0.48 1.81 0.48 1.80622 0.47449 C 1.8 0.47 1.8 0.47 1.79236 0.46922 C 1.79 0.47 1.78 0.47 1.77858 0.4628 C 1.77 0.46 1.76 0.45 1.75149 0.44665 C 1.74 0.44 1.73 0.43 1.72543 0.42625 C 1.72 0.42 1.71 0.41 1.70478 0.40613 C 1.7 0.4 1.69 0.39 1.6854 0.3833 C 1.68 0.38 1.67 0.37 1.66753 0.35791 C 1.66 0.35 1.66 0.34 1.65144 0.33008" />
    <path d="M 2.03234 -0.22953 L 1.9948 -0.40959 L 1.93743 -0.60672 L 1.8612 -0.81764 L 1.76736 -1.03885 L 1.65747 -1.26668 L 1.53336 -1.49734 L 1.39708 -1.72702 L 1.25091 -1.9519 L 1.09725 -2.16824 L 0.93868 -2.37245 L 0.77781 -2.56115 L 0.61732 -2.73121 L 0.45987 -2.87979 L 0.30807 -3.00444 C 0.3 -3.01 0.3 -3.01 0.28857 -3.01827 C 0.28 -3.02 0.28 -3.03 0.26854 -3.03069 C 0.26 -3.03 0.26 -3.04 0.25168 -3.03981 C 0.25 -3.04 0.24 -3.05 0.23456 -3.04785 C 0.23 -3.05 0.22 -3.05 0.21725 -3.05479 C 0.21 -3.06 0.21 -3.06 0.19977 -3.06059 C 0.19 -3.06 0.19 -3.06 0.18219 -3.0652 C 0.18 -3.07 0.17 -3.07 0.16454 -3.06862 C 0.16 -3.07 0.15 -3.07 0.14685 -3.0708 C 0.14 -3.07 0.14 -3.07 0.12918 -3.07174 C 0.12 -3.07 0.11 -3.07 0.10439 -3.07091 C 0.1 -3.07 0.09 -3.07 0.07976 -3.06756 C 0.07 -3.07 0.06 -3.06 0.05535 -3.06165 C 0.05 -3.06 0.05 -3.06 0.04324 -3.05774 C 0.04 -3.06 0.04 -3.05 0.0312 -3.05318" />
    <path d="M 1.24404 1.09739 A 1.25 0.62004 180 0 0 2.05053 0.51769" />
    <path d="M 2.03234 -0.22953 L 2.01581 -0.26439 L 1.99843 -0.2991 L 1.98022 -0.3336 L 1.96125 -0.36778 L 1.94155 -0.40157 L 1.92117 -0.43488 L 1.90017 -0.46764 L 1.87858 -0.49977 L 1.85647 -0.53118 L 1.83389 -0.56181 L 1.8109 -0.59157 L 1.78754 -0.62039 L 1.76388 -0.64821 L 1.73997 -0.67496 C 1.74 -0.67 1.74 -0.66 1.73742 -0.65966 C 1.74 -0.65 1.74 -0.65 1.73514 -0.64371 C 1.73 -0.64 1.73 -0.63 1.73316 -0.62714 C 1.73 -0.62 1.73 -0.62 1.7315 -0.60995 C 1.73 -0.6 1.73 -0.6 1.73019 -0.59218 C 1.73 -0.59 1.73 -0.58 1.72923 -0.57383 C 1.73 -0.57 1.73 -0.56 1.72866 -0.55494 C 1.73 -0.55 1.73 -0.54 1.72846 -0.53551 C 1.73 -0.53 1.73 -0.52 1.72859 -0.51966 C 1.73 -0.51 1.73 -0.51 1.72896 -0.50353 C 1.73 -0.5 1.73 -0.49 1.72957 -0.48713 C 1.73 -0.48 1.73 -0.48 1.73041 -0.47048 C 1.73 -0.46 1.73 -0.46 1.73149 -0.4536 C 1.73 -0.45 1.73 -0.44 1.73279 -0.43652 C 1.73 -0.43 1.73 -0.43 1.73429 -0.41925 C 1.73 -0.41 1.74 -0.41 1.736 -0.40182 C 1.74 -0.4 1.74 -0.39 1.73807 -0.3826 C 1.74 -0.38 1.74 -0.37 1.74034 -0.36323 C 1.74 -0.36 1.74 -0.35 1.74279 -0.34374 C 1.74 -0.34 1.74 -0.33 1.7454 -0.32414 C 1.75 -0.31 1.75 -0.3 1.75029 -0.28954 C 1.75 -0.28 1.75 -0.27 1.75548 -0.2548 C 1.76 -0.24 1.76 -0.23 1.76085 -0.22002 C 1.76 -0.21 1.76 -0.2 1.76627 -0.18527 C 1.77 -0.17 1.77 -0.16 1.77165 -0.15063 C 1.77 -0.14 1.78 -0.13 1.77685 -0.11618 C 1.78 -0.1 1.78 -0.09 1.78178 -0.08201 C 1.78 -0.07 1.78 -0.06 1.78632 -0.0482 C 1.79 -0.02 1.79 0.02 1.79664 0.0491 C 1.8 0.08 1.8 0.11 1.80053 0.14071 C 1.8 0.15 1.8 0.16 1.80018 0.16582 C 1.8 0.17 1.8 0.18 1.79908 0.19021 C 1.8 0.2 1.8 0.21 1.7968 0.21783 C 1.8 0.23 1.79 0.24 1.79339 0.24428 C 1.79 0.25 1.79 0.26 1.78883 0.26944 C 1.79 0.28 1.79 0.29 1.78307 0.29321 C 1.78 0.3 1.78 0.31 1.77611 0.31548 C 1.77 0.32 1.77 0.33 1.76794 0.33616 C 1.77 0.34 1.76 0.35 1.75856 0.35518 C 1.76 0.36 1.75 0.37 1.74799 0.37246 C 1.75 0.38 1.74 0.38 1.73954 0.38393 C 1.74 0.39 1.73 0.39 1.73051 0.39441 C 1.73 0.4 1.72 0.4 1.7209 0.40388 C 1.72 0.41 1.71 0.41 1.71074 0.41233" />
    <path d="M 1.73997 -0.67496 L 1.66537 -0.89937 L 1.56401 -1.14045 L 1.43901 -1.39072 L 1.29426 -1.64245 L 1.13422 -1.88784 L 0.96385 -2.1193 L 0.78843 -2.32966 L 0.61339 -2.51241 L 0.44413 -2.6619 L 0.28591 -2.7735 L 0.14362 -2.84376 L 0.02165 -2.8705 L -0.0762 -2.85289 L -0.14692 -2.79148" />
    <path d="M 0.06731 2.7065 A 1 0.49603 360 0 1 0.1182 2.75661" />
    <path d="M 1.66673 0.35665 A 1 0.49603 360 0 1 1.71763 0.40677" />
    <path d="M 0.44433 2.27232 A 1.25 0.62004 180 0 0 1.25082 1.69261" />
    <path d="M 1.23263 0.94539 C 1.23 0.96 1.24 0.98 1.23628 0.9927 C 1.24 1.01 1.24 1.02 1.23993 1.04017 C 1.24 1.06 1.24 1.07 1.24337 1.08758 C 1.24 1.1 1.25 1.12 1.24638 1.13469 C 1.25 1.15 1.25 1.16 1.24821 1.16898 C 1.25 1.18 1.25 1.19 1.24961 1.20291 C 1.25 1.21 1.25 1.23 1.25051 1.23637 C 1.25 1.25 1.25 1.26 1.25082 1.26928 L 1.25082 1.69261" />
    <path d="M 1.25082 1.26928 C 1.25 1.28 1.25 1.29 1.25045 1.3029 C 1.25 1.31 1.25 1.32 1.24929 1.33569 C 1.25 1.35 1.25 1.36 1.24725 1.36754 C 1.25 1.38 1.25 1.39 1.24428 1.39834 C 1.24 1.41 1.24 1.42 1.24047 1.42693 C 1.24 1.44 1.24 1.45 1.23567 1.45432 C 1.23 1.46 1.23 1.47 1.22987 1.48038 C 1.23 1.49 1.23 1.5 1.22302 1.505 C 1.22 1.51 1.22 1.52 1.21512 1.52807 C 1.21 1.54 1.21 1.54 1.20617 1.5495 C 1.2 1.56 1.2 1.56 1.19617 1.56918 C 1.19 1.58 1.19 1.58 1.18514 1.58705 C 1.18 1.59 1.18 1.6 1.17313 1.60302 C 1.17 1.61 1.16 1.61 1.1602 1.61703 C 1.16 1.62 1.15 1.63 1.1464 1.62904 C 1.14 1.63 1.14 1.64 1.13181 1.63902 C 1.13 1.64 1.12 1.64 1.11649 1.64695 C 1.11 1.65 1.11 1.65 1.10056 1.65283 C 1.1 1.65 1.09 1.66 1.0841 1.65667 C 1.08 1.66 1.07 1.66 1.06722 1.65848 C 1.06 1.66 1.06 1.66 1.05085 1.65835 C 1.05 1.66 1.04 1.66 1.03429 1.65644 C 1.03 1.66 1.03 1.65 1.02041 1.65352 C 1.02 1.65 1.01 1.65 1.00651 1.64941 C 1 1.65 1 1.65 0.99264 1.64414 C 0.99 1.64 0.98 1.64 0.97886 1.63773 C 0.97 1.63 0.96 1.63 0.95178 1.62158 C 0.94 1.62 0.93 1.61 0.92571 1.60117 C 0.92 1.59 0.91 1.59 0.90507 1.58105 C 0.9 1.57 0.89 1.57 0.88568 1.55823 C 0.88 1.55 0.87 1.54 0.86782 1.53283 C 0.86 1.52 0.86 1.51 0.85173 1.505" />
    <path d="M 0.86702 1.53158 A 1 0.49603 360 0 1 0.91791 1.58169" />
    <path d="M -2.04889 2.00889 L -2.04889 2.86754 C -2.05 2.89 -2.05 2.91 -2.04498 2.93205 C -2.04 2.95 -2.04 2.97 -2.03325 2.99611 C -2.03 3.02 -2.02 3.04 -2.01369 3.05927 C -2.01 3.08 -2 3.1 -1.98626 3.1211 C -1.98 3.13 -1.98 3.14 -1.9698 3.15103 C -1.96 3.16 -1.96 3.17 -1.95141 3.18048 C -1.94 3.19 -1.94 3.2 -1.93111 3.20939 C -1.92 3.22 -1.92 3.23 -1.90888 3.23771 C -1.9 3.25 -1.89 3.26 -1.88476 3.26539 C -1.88 3.27 -1.87 3.28 -1.85874 3.29238 C -1.85 3.3 -1.84 3.31 -1.83086 3.31863 C -1.82 3.33 -1.81 3.34 -1.80114 3.3441 C -1.79 3.35 -1.78 3.36 -1.77468 3.36492 C -1.77 3.37 -1.76 3.38 -1.74696 3.38512 C -1.74 3.39 -1.73 3.4 -1.71802 3.40468 C -1.71 3.41 -1.7 3.42 -1.68787 3.42357 C -1.68 3.43 -1.67 3.44 -1.65656 3.44177 C -1.65 3.45 -1.64 3.45 -1.62411 3.45927 C -1.61 3.46 -1.6 3.47 -1.59057 3.47604 C -1.58 3.48 -1.57 3.49 -1.55597 3.49207 C -1.54 3.5 -1.53 3.5 -1.51549 3.50933 C -1.5 3.51 -1.49 3.52 -1.47376 3.5256 C -1.46 3.53 -1.45 3.54 -1.43085 3.54084 C -1.42 3.55 -1.4 3.55 -1.38683 3.55504 C -1.37 3.56 -1.36 3.56 -1.34178 3.56818 C -1.33 3.57 -1.31 3.58 -1.29578 3.58024 C -1.28 3.58 -1.26 3.59 -1.2489 3.59121 C -1.23 3.59 -1.22 3.6 -1.20121 3.60107 C -1.07 3.63 -0.94 3.64 -0.80116 3.63877 C 0.48 3.48 0.3 3.24 0.45111 2.86754" />
    <path d="M 0.45111 2.4442 L 0.45111 2.86754" />
    <path d="M 1.25059 1.24135 C 1.26 1.24 1.28 1.24 1.29128 1.23191 C 1.3 1.23 1.32 1.23 1.33132 1.22164 C 1.34 1.22 1.36 1.21 1.37065 1.21056 C 1.38 1.21 1.4 1.2 1.40923 1.19867 C 1.42 1.19 1.43 1.19 1.447 1.186 C 1.46 1.18 1.47 1.18 1.48393 1.17255 C 1.5 1.17 1.51 1.16 1.51996 1.15833 C 1.53 1.15 1.54 1.15 1.55505 1.14336 C 1.57 1.14 1.58 1.13 1.59041 1.12706 C 1.6 1.12 1.61 1.12 1.62467 1.10999 C 1.64 1.1 1.65 1.1 1.65779 1.09216 C 1.67 1.09 1.68 1.08 1.68974 1.07359 C 1.7 1.07 1.71 1.06 1.72047 1.05431 C 1.73 1.05 1.74 1.04 1.74995 1.03433 C 1.76 1.03 1.77 1.02 1.77815 1.01369 C 1.79 1.01 1.8 1 1.80503 0.9924 C 1.82 0.98 1.82 0.98 1.8341 0.96735 C 1.84 0.96 1.85 0.95 1.86139 0.94154 C 1.87 0.93 1.88 0.92 1.88688 0.91502 C 1.9 0.91 1.9 0.9 1.91055 0.88783 C 1.92 0.88 1.93 0.87 1.93239 0.86003 C 1.94 0.85 1.95 0.84 1.95237 0.83166 C 1.96 0.82 1.96 0.81 1.97051 0.80277 C 1.98 0.79 1.98 0.78 1.98679 0.77341 C 2 0.75 2.01 0.73 2.0147 0.71108 C 2.02 0.69 2.03 0.67 2.03462 0.64739 C 2.04 0.63 2.04 0.6 2.04656 0.58277 C 2.05 0.56 2.05 0.54 2.05053 0.51769" />
    <path d="M 0.45088 2.41627 C 0.46 2.41 0.48 2.41 0.49157 2.40683 C 0.51 2.4 0.52 2.4 0.5316 2.39656 C 0.54 2.39 0.56 2.39 0.57094 2.38548 C 0.58 2.38 0.6 2.38 0.60951 2.3736 C 0.62 2.37 0.63 2.37 0.64729 2.36092 C 0.66 2.36 0.67 2.35 0.68422 2.34747 C 0.7 2.34 0.71 2.34 0.72025 2.33325 C 0.73 2.33 0.74 2.32 0.75534 2.31828 C 0.77 2.31 0.78 2.31 0.7907 2.30198 C 0.8 2.3 0.81 2.29 0.82496 2.28491 C 0.84 2.28 0.85 2.27 0.85808 2.26708 C 0.87 2.26 0.88 2.25 0.89002 2.24851 C 0.9 2.24 0.91 2.24 0.92075 2.22923 C 0.93 2.22 0.94 2.22 0.95023 2.20925 C 0.96 2.2 0.97 2.2 0.97843 2.18861 C 0.99 2.18 1 2.17 1.00532 2.16733 C 1.02 2.16 1.02 2.15 1.03439 2.14227 C 1.04 2.13 1.05 2.13 1.06168 2.11646 C 1.07 2.11 1.08 2.1 1.08717 2.08994 C 1.1 2.08 1.1 2.07 1.11084 2.06276 C 1.12 2.05 1.13 2.04 1.13267 2.03495 C 1.14 2.03 1.15 2.02 1.15266 2.00658 C 1.16 2 1.17 1.99 1.1708 1.97769 C 1.18 1.97 1.18 1.96 1.18708 1.94833 C 1.2 1.93 1.21 1.91 1.21499 1.88601 C 1.22 1.86 1.23 1.84 1.23491 1.82231 C 1.24 1.8 1.24 1.78 1.24684 1.75769 C 1.25 1.74 1.25 1.71 1.25082 1.69261" />
</svg>