<svg version="1.1" xmlns="http://www.w3.org/2000/svg" viewBox="-3.368220632364788 -5.132094705034535 6.659716594667367 10.1922554508239" fill="none" stroke="black" stroke-width="0.6%" vector-effect="non-scaling-stroke">
    <path d="M -2.36822 -0.45054 L -2.36822 2.38421 L -2.26615 2.39132" />
    <path d="M -2.26615 0.31251 L -2.26615 2.39132" />
    <path d="M -2.26615 0.31251 C -2.27 0.31 -2.27 0.3 -2.2656 0.29585 C -2.27 0.29 -2.26 0.28 -2.26393 0.27932 C -2.26 0.27 -2.26 0.27 -2.26116 0.26299 C -2.26 0.26 -2.26 0.25 -2.25729 0.24692 C -2.26 0.24 -2.25 0.24 -2.25234 0.23115 C -2.25 0.23 -2.25 0.22 -2.24633 0.21575 C -2.24 0.21 -2.24 0.21 -2.23927 0.20078 C -2.24 0.2 -2.23 0.19 -2.23118 0.18628 C -2.23 0.18 -2.23 0.18 -2.2221 0.1723 C -2.22 0.17 -2.22 0.16 -2.21206 0.15889 C -2.21 0.15 -2.2 0.15 -2.20108 0.14611 C -2.2 0.14 -2.19 0.14 -2.18921 0.13398 C -2.19 0.13 -2.18 0.13 -2.17647 0.12257 C -2.17 0.12 -2.17 0.12 -2.16292 0.11189 C -2.16 0.11 -2.15 0.11 -2.1486 0.10199 C -2.14 0.1 -2.14 0.1 -2.13355 0.0929 L -2.1237 0.10668" />
    <path d="M -2.1237 -0.4335 L -2.1237 0.10668" />
    <path d="M -2.36822 -0.45054 L -2.1237 -0.4335" />
    <path d="M 0.0272 -4.13209 L -2.36822 -0.45054" />
    <path d="M -2.05122 0.47173 L -1.94811 0.67689 L -1.82995 0.89265 L -1.6987 1.11543 L -1.55655 1.34152 L -1.40584 1.56719 L -1.24909 1.78867 L -1.08889 2.00229 L -0.92791 2.20452 L -0.76881 2.39198 L -0.61423 2.56158 L -0.46675 2.71049 L -0.32881 2.83624 L -0.2027 2.93675 L -0.0905 3.01035" />
    <path d="M 0.15752 2.62915 C 0.16 2.64 0.16 2.66 0.16374 2.67568 C 0.17 2.69 0.17 2.71 0.17031 2.72174 C 0.17 2.74 0.17 2.75 0.177 2.76712 C 0.18 2.78 0.18 2.8 0.18358 2.8116 C 0.19 2.82 0.19 2.83 0.18831 2.84428 C 0.19 2.86 0.19 2.87 0.19276 2.87628 C 0.19 2.89 0.2 2.9 0.19683 2.90749 C 0.2 2.92 0.2 2.93 0.20043 2.93783 C 0.2 2.95 0.2 2.96 0.20346 2.9672 C 0.2 2.98 0.21 2.99 0.20586 2.99551 C 0.21 3 0.21 3.01 0.20753 3.02267 C 0.21 3.03 0.21 3.04 0.2084 3.04859 C 0.21 3.05 0.21 3.06 0.20851 3.06111 C 0.21 3.07 0.21 3.08 0.20812 3.08316 C 0.21 3.09 0.21 3.1 0.20691 3.10394 C 0.21 3.11 0.21 3.12 0.20486 3.12337 C 0.2 3.13 0.2 3.14 0.20192 3.14137 C 0.2 3.15 0.2 3.15 0.19809 3.15786 C 0.2 3.16 0.2 3.17 0.19334 3.1728 C 0.19 3.18 0.19 3.18 0.18767 3.18611 C 0.19 3.19 0.18 3.19 0.18109 3.19776 C 0.18 3.2 0.18 3.2 0.175 3.20608 C 0.17 3.21 0.17 3.21 0.16833 3.2132 C 0.17 3.22 0.16 3.22 0.16108 3.21913 C 0.16 3.22 0.16 3.22 0.1533 3.22386 C 0.15 3.23 0.15 3.23 0.145 3.22738 C 0.14 3.23 0.14 3.23 0.13621 3.22969 C 0.13 3.23 0.13 3.23 0.12698 3.23079 C 0.12 3.23 0.12 3.23 0.11733 3.2307 C 0.11 3.23 0.11 3.23 0.10544 3.22906 C 0.1 3.23 0.1 3.23 0.0931 3.22579 C 0.09 3.22 0.08 3.22 0.07874 3.22018 C 0.07 3.22 0.07 3.22 0.06401 3.21258 C 0.06 3.21 0.05 3.21 0.04904 3.20304 C 0.04 3.2 0.04 3.2 0.03391 3.19162 C 0.03 3.19 0.02 3.18 0.01877 3.17837 C 0.01 3.17 0.01 3.17 0.00371 3.16335 C 0 3.16 -0.01 3.15 -0.01114 3.14663 C -0.02 3.14 -0.02 3.13 -0.02565 3.12827 C -0.03 3.12 -0.04 3.11 -0.0436 3.10239 C -0.05 3.09 -0.06 3.08 -0.06056 3.07402 C -0.07 3.06 -0.07 3.05 -0.07628 3.0433 C -0.08 3.03 -0.09 3.02 -0.0905 3.01035" />
    <path d="M 0.15752 2.62915 L 0.1269 2.53584 L 0.08941 2.43534 L 0.04525 2.32824 L -0.0053 2.21519 L -0.06195 2.09684 L -0.12436 1.97389 L -0.19217 1.84706 L -0.26499 1.7171 L -0.34237 1.58478 L -0.42387 1.45087 L -0.509 1.31617 L -0.59727 1.18145 L -0.68815 1.04753 L -0.78112 0.91519 L -0.84524 0.82649 L -0.9099 0.73913 L -0.97491 0.65333 L -1.04011 0.56934 L -1.10531 0.48737 L -1.17034 0.40767 L -1.23501 0.33043 L -1.29916 0.25587 L -1.36261 0.1842 L -1.42518 0.11561 L -1.48671 0.05028 L -1.54703 -0.0116 L -1.60597 -0.06987 L -1.66337 -0.12437 C -1.67 -0.13 -1.68 -0.14 -1.68165 -0.1407 C -1.69 -0.15 -1.69 -0.15 -1.7002 -0.15596 C -1.71 -0.16 -1.71 -0.16 -1.71564 -0.16769 C -1.72 -0.17 -1.73 -0.18 -1.73115 -0.17857 C -1.74 -0.18 -1.74 -0.19 -1.74669 -0.18856 C -1.75 -0.19 -1.76 -0.19 -1.7622 -0.19762 C -1.77 -0.2 -1.77 -0.2 -1.77766 -0.20572 C -1.78 -0.21 -1.79 -0.21 -1.79301 -0.21282 C -1.8 -0.22 -1.8 -0.22 -1.80823 -0.21889 C -1.81 -0.22 -1.82 -0.22 -1.82328 -0.2239 C -1.83 -0.23 -1.84 -0.23 -1.8441 -0.22913 C -1.85 -0.23 -1.86 -0.23 -1.86446 -0.23219 C -1.87 -0.23 -1.88 -0.23 -1.88429 -0.23303 C -1.89 -0.23 -1.89 -0.23 -1.894 -0.23262 C -1.9 -0.23 -1.9 -0.23 -1.90356 -0.23165 L -2.01955 -0.05339 L -2.02257 -0.04844 L -2.02536 -0.04318 L -2.02793 -0.03761 L -2.03028 -0.03175 L -2.0324 -0.02558 L -2.03431 -0.01911 L -2.03599 -0.01234 L -2.03745 -0.00527 L -2.03868 0.0021 L -2.03969 0.00976 L -2.04048 0.01771 L -2.04104 0.02596 L -2.04138 0.0345 L -2.04149 0.04332 L -2.02853 0.1558 L -1.98999 0.29834 L -1.92686 0.46723 L -1.84079 0.65811 L -1.734 0.86602 L -1.60926 1.08558 L -1.4698 1.3111 L -1.31924 1.53672 L -1.16149 1.75661 L -1.00062 1.96506 L -0.84082 2.15667 L -0.68621 2.32648 L -0.54081 2.47007 L -0.40839 2.58374 L -0.38802 2.61715 L -0.36707 2.65041 L -0.3456 2.68346 L -0.32366 2.7162 L -0.30131 2.74857 L -0.27859 2.78049 L -0.25556 2.81186 L -0.23228 2.84263 L -0.2088 2.87271 L -0.18519 2.90203 L -0.1615 2.93053 L -0.13778 2.95812 L -0.1141 2.98475 L -0.0905 3.01035" />
    <path d="M -2.29149 3.44326 A 1.25 0.40914 180 1 0 0.20851 3.44326" />
    <path d="M -2.05122 0.47173 A 1.25 0.40914 0 0 1 -2.26615 0.31251" />
    <path d="M -2.13355 0.0929 C -2.13 0.1 -2.13 0.1 -2.13491 0.11051 C -2.14 0.12 -2.14 0.12 -2.13563 0.12844 C -2.14 0.13 -2.14 0.14 -2.13571 0.14668 C -2.14 0.15 -2.14 0.16 -2.13514 0.16523 C -2.13 0.17 -2.13 0.18 -2.13393 0.18407 C -2.13 0.19 -2.13 0.2 -2.13208 0.20318 C -2.13 0.21 -2.13 0.22 -2.1296 0.22254 C -2.13 0.23 -2.13 0.24 -2.12651 0.24213 C -2.13 0.25 -2.12 0.26 -2.12239 0.26394 C -2.12 0.27 -2.12 0.28 -2.11754 0.28595 C -2.12 0.29 -2.11 0.3 -2.11199 0.30811 C -2.11 0.32 -2.11 0.32 -2.10575 0.33038 C -2.1 0.34 -2.1 0.35 -2.09885 0.35268 C -2.1 0.36 -2.09 0.37 -2.09131 0.37497 C -2.09 0.38 -2.09 0.39 -2.08318 0.39719 C -2.08 0.4 -2.08 0.41 -2.07447 0.41926 C -2.07 0.43 -2.07 0.44 -2.0632 0.44571 C -2.06 0.45 -2.06 0.46 -2.05122 0.47173" />
    <path d="M -2.01955 -0.05339 L -2.1237 0.10668" />
    <path d="M -1.65503 -0.39787 L -1.65503 -0.1166" />
    <path d="M -1.65503 -0.39787 C -1.66 -0.4 -1.65 -0.41 -1.65476 -0.41882 C -1.65 -0.43 -1.65 -0.43 -1.65394 -0.44048 C -1.65 -0.45 -1.65 -0.46 -1.65258 -0.4627 C -1.65 -0.47 -1.65 -0.48 -1.65067 -0.48536 C -1.65 -0.49 -1.65 -0.5 -1.64824 -0.50833 C -1.65 -0.52 -1.65 -0.52 -1.64528 -0.53146 C -1.64 -0.54 -1.64 -0.55 -1.64181 -0.55463 C -1.64 -0.56 -1.64 -0.57 -1.63783 -0.57774 C -1.64 -0.59 -1.63 -0.59 -1.63292 -0.60277 C -1.63 -0.61 -1.63 -0.62 -1.62744 -0.62747 C -1.63 -0.63 -1.63 -0.64 -1.62448 -0.63965 C -1.62 -0.64 -1.62 -0.65 -1.62139 -0.65172 C -1.62 -0.66 -1.62 -0.66 -1.61816 -0.66366 C -1.62 -0.67 -1.62 -0.67 -1.6148 -0.67546 C -1.61 -0.67 -1.62 -0.67 -1.61501 -0.6614 C -1.62 -0.66 -1.61 -0.65 -1.61484 -0.64716 C -1.61 -0.64 -1.61 -0.63 -1.61333 -0.61814 C -1.61 -0.61 -1.61 -0.6 -1.6103 -0.58847 C -1.61 -0.58 -1.61 -0.57 -1.60576 -0.5582 C -1.6 -0.55 -1.6 -0.54 -1.60164 -0.53639 C -1.6 -0.53 -1.6 -0.52 -1.5968 -0.51439 C -1.6 -0.51 -1.59 -0.5 -1.59124 -0.49222 C -1.59 -0.48 -1.59 -0.48 -1.585 -0.46996 C -1.58 -0.46 -1.58 -0.46 -1.5781 -0.44766 C -1.58 -0.44 -1.57 -0.43 -1.57057 -0.42536 C -1.57 -0.42 -1.57 -0.41 -1.56243 -0.40315 C -1.56 -0.4 -1.56 -0.39 -1.55372 -0.38108 C -1.55 -0.37 -1.55 -0.36 -1.54246 -0.35463 C -1.54 -0.35 -1.53 -0.34 -1.53048 -0.32861 L -1.49067 -0.24707 L -1.44823 -0.16345 L -1.40325 -0.07799 L -1.35588 0.00909 L -1.30623 0.09755 L -1.25444 0.18714 L -1.20066 0.27763 L -1.14502 0.36876 L -1.08769 0.46029 L -1.02881 0.55197 L -0.96854 0.64354 L -0.90706 0.73477 L -0.84453 0.8254 L -0.78112 0.91519 L -0.68662 1.04518 L -0.59115 1.17205 L -0.49526 1.29505 L -0.39953 1.41346 L -0.30451 1.52658 L -0.21076 1.63375 L -0.11883 1.73433 L -0.02927 1.82774 L 0.0574 1.91342 L 0.14066 1.99087 L 0.22003 2.05963 L 0.29504 2.1193 L 0.36525 2.16952 L 0.43024 2.21001" />
    <path d="M -1.49881 -0.85373 L -1.6148 -0.67546" />
    <path d="M -1.38282 -1.03199 L -1.49881 -0.85373 L -1.50182 -0.84877 L -1.50461 -0.84352 L -1.50718 -0.83795 L -1.50953 -0.83208 L -1.51166 -0.82591 L -1.51356 -0.81944 L -1.51525 -0.81267 L -1.5167 -0.8056 L -1.51794 -0.79824 L -1.51895 -0.79058 L -1.51973 -0.78262 L -1.5203 -0.77438 L -1.52063 -0.76584 L -1.52074 -0.75702 L -1.50779 -0.64454 L -1.46924 -0.502 L -1.40612 -0.33311 L -1.32004 -0.14223 L -1.21325 0.06568 L -1.08851 0.28524 L -0.94906 0.51076 L -0.7985 0.73638 L -0.64074 0.95627 L -0.47988 1.16472 L -0.32007 1.35633 L -0.16547 1.52614 L -0.02007 1.66974 L 0.11235 1.78341 L 0.13273 1.81681 L 0.15367 1.85007 L 0.17514 1.88312 L 0.19708 1.91587 L 0.21944 1.94824 L 0.24216 1.98015 L 0.26519 2.01153 L 0.28847 2.04229 L 0.31194 2.07237 L 0.33555 2.1017 L 0.35925 2.13019 L 0.38297 2.15779 L 0.40665 2.18441 L 0.43024 2.21001" />
    <path d="M -1.13429 -1.1982 L -1.13429 -0.91693" />
    <path d="M -1.13429 -1.1982 C -1.13 -1.21 -1.13 -1.21 -1.13402 -1.21916 C -1.13 -1.23 -1.13 -1.23 -1.1332 -1.24081 C -1.13 -1.25 -1.13 -1.26 -1.13183 -1.26304 C -1.13 -1.27 -1.13 -1.28 -1.12993 -1.2857 C -1.13 -1.29 -1.13 -1.3 -1.12749 -1.30866 C -1.13 -1.32 -1.13 -1.32 -1.12454 -1.33179 C -1.12 -1.34 -1.12 -1.35 -1.12106 -1.35497 C -1.12 -1.36 -1.12 -1.37 -1.11708 -1.37808 C -1.12 -1.39 -1.11 -1.39 -1.11218 -1.40311 C -1.11 -1.41 -1.11 -1.42 -1.10669 -1.4278 C -1.11 -1.43 -1.1 -1.44 -1.10374 -1.43999 C -1.1 -1.44 -1.1 -1.45 -1.10065 -1.45206 C -1.1 -1.46 -1.1 -1.46 -1.09742 -1.464 C -1.1 -1.47 -1.1 -1.47 -1.09405 -1.4758 C -1.09 -1.47 -1.09 -1.47 -1.09427 -1.46174 C -1.09 -1.46 -1.09 -1.45 -1.09409 -1.4475 C -1.09 -1.44 -1.09 -1.43 -1.09259 -1.41848 C -1.09 -1.41 -1.09 -1.4 -1.08955 -1.3888 C -1.09 -1.38 -1.09 -1.37 -1.08502 -1.35854 C -1.08 -1.35 -1.08 -1.34 -1.0809 -1.33673 C -1.08 -1.33 -1.08 -1.32 -1.07605 -1.31472 C -1.07 -1.31 -1.07 -1.3 -1.0705 -1.29256 C -1.07 -1.29 -1.07 -1.28 -1.06426 -1.2703 C -1.06 -1.26 -1.06 -1.26 -1.05736 -1.24799 C -1.05 -1.24 -1.05 -1.23 -1.04983 -1.2257 C -1.05 -1.22 -1.04 -1.21 -1.04169 -1.20349 C -1.04 -1.2 -1.04 -1.19 -1.03298 -1.18142 C -1.03 -1.17 -1.03 -1.16 -1.02171 -1.15496 C -1.02 -1.15 -1.01 -1.14 -1.00974 -1.12895 L -0.96993 -1.04741 L -0.92748 -0.96379 L -0.88251 -0.87832 L -0.83513 -0.79125 L -0.78548 -0.70279 L -0.7337 -0.6132 L -0.67991 -0.52271 L -0.62428 -0.43158 L -0.56694 -0.34005 L -0.50806 -0.24837 L -0.4478 -0.15679 L -0.38632 -0.06557 L -0.32379 0.02506 L -0.26037 0.11485 L -0.3245 0.02615 L -0.38915 -0.06121 L -0.45417 -0.14701 L -0.51936 -0.231 L -0.58457 -0.31296 L -0.64959 -0.39267 L -0.71427 -0.46991 L -0.77842 -0.54447 L -0.84186 -0.61614 L -0.90444 -0.68473 L -0.96597 -0.75006 L -1.02628 -0.81194 L -1.08522 -0.87021 L -1.14263 -0.92471 C -1.15 -0.93 -1.15 -0.94 -1.16091 -0.94104 C -1.17 -0.95 -1.17 -0.95 -1.17946 -0.9563 C -1.18 -0.96 -1.19 -0.96 -1.19489 -0.96802 C -1.2 -0.97 -1.21 -0.98 -1.21041 -0.97891 C -1.22 -0.98 -1.22 -0.99 -1.22594 -0.9889 C -1.23 -0.99 -1.24 -1 -1.24146 -0.99796 C -1.25 -1 -1.25 -1 -1.25691 -1.00606 C -1.26 -1.01 -1.27 -1.01 -1.27227 -1.01316 C -1.28 -1.02 -1.28 -1.02 -1.28748 -1.01923 C -1.29 -1.02 -1.3 -1.02 -1.30253 -1.02424 C -1.31 -1.03 -1.32 -1.03 -1.32336 -1.02947 C -1.33 -1.03 -1.34 -1.03 -1.34371 -1.03252 C -1.35 -1.03 -1.36 -1.03 -1.36355 -1.03337 C -1.37 -1.03 -1.37 -1.03 -1.37326 -1.03296 C -1.38 -1.03 -1.38 -1.03 -1.38282 -1.03199" />
    <path d="M -0.97807 -1.65406 L -1.09405 -1.4758" />
    <path d="M -0.86208 -1.83233 L -0.97807 -1.65406 L -0.98108 -1.64911 L -0.98387 -1.64385 L -0.98644 -1.63829 L -0.98879 -1.63242 L -0.99092 -1.62625 L -0.99282 -1.61978 L -0.9945 -1.61301 L -0.99596 -1.60594 L -0.99719 -1.59858 L -0.9982 -1.59091 L -0.99899 -1.58296 L -0.99955 -1.57471 L -0.99989 -1.56618 L -1 -1.55736 L -0.98704 -1.44488 L -0.9485 -1.30234 L -0.88537 -1.13344 L -0.7993 -0.94257 L -0.69251 -0.73465 L -0.56777 -0.51509 L -0.42831 -0.28958 L -0.27776 -0.06396 L -0.12 0.15593 L 0.04087 0.36438 L 0.20067 0.55599 L 0.35528 0.7258 L 0.50068 0.8694 L 0.6331 0.98307 L 0.65347 1.01647 L 0.67442 1.04974 L 0.69589 1.08278 L 0.71783 1.11553 L 0.74018 1.1479 L 0.7629 1.17981 L 0.78593 1.21119 L 0.80921 1.24195 L 0.83269 1.27204 L 0.8563 1.30136 L 0.87999 1.32985 L 0.90371 1.35745 L 0.92739 1.38408 L 0.95099 1.40967" />
    <path d="M -0.61354 -1.99854 L -0.61354 -1.71727" />
    <path d="M -0.61354 -1.99854 C -0.61 -2.01 -0.61 -2.01 -0.61327 -2.01949 C -0.61 -2.03 -0.61 -2.03 -0.61245 -2.04115 C -0.61 -2.05 -0.61 -2.06 -0.61109 -2.06338 C -0.61 -2.07 -0.61 -2.08 -0.60918 -2.08604 C -0.61 -2.09 -0.61 -2.1 -0.60675 -2.109 C -0.61 -2.12 -0.6 -2.12 -0.60379 -2.13213 C -0.6 -2.14 -0.6 -2.15 -0.60032 -2.15531 C -0.6 -2.16 -0.6 -2.17 -0.59634 -2.17842 C -0.59 -2.19 -0.59 -2.2 -0.59143 -2.20345 C -0.59 -2.21 -0.59 -2.22 -0.58595 -2.22814 C -0.58 -2.23 -0.58 -2.24 -0.58299 -2.24033 C -0.58 -2.24 -0.58 -2.25 -0.5799 -2.2524 C -0.58 -2.26 -0.58 -2.26 -0.57667 -2.26434 C -0.58 -2.27 -0.57 -2.27 -0.57331 -2.27614 C -0.57 -2.27 -0.57 -2.27 -0.57352 -2.26208 C -0.57 -2.26 -0.57 -2.25 -0.57335 -2.24784 C -0.57 -2.24 -0.57 -2.23 -0.57184 -2.21882 C -0.57 -2.21 -0.57 -2.2 -0.56881 -2.18914 C -0.57 -2.18 -0.57 -2.17 -0.56427 -2.15888 C -0.56 -2.15 -0.56 -2.14 -0.56015 -2.13707 C -0.56 -2.13 -0.56 -2.12 -0.55531 -2.11506 C -0.55 -2.11 -0.55 -2.1 -0.54975 -2.0929 C -0.55 -2.09 -0.55 -2.08 -0.54351 -2.07064 C -0.54 -2.06 -0.54 -2.06 -0.53661 -2.04833 C -0.53 -2.04 -0.53 -2.03 -0.52908 -2.02604 C -0.53 -2.02 -0.52 -2.01 -0.52094 -2.00383 C -0.52 -2 -0.52 -1.99 -0.51224 -1.98176 C -0.51 -1.97 -0.5 -1.96 -0.50097 -1.9553 C -0.5 -1.95 -0.49 -1.94 -0.48899 -1.92929 L -0.44918 -1.84774 L -0.40674 -1.76413 L -0.36176 -1.67866 L -0.31439 -1.59158 L -0.26474 -1.50313 L -0.21295 -1.41353 L -0.15917 -1.32305 L -0.10353 -1.23192 L -0.0462 -1.14039 L 0.01268 -1.04871 L 0.07294 -0.95713 L 0.13443 -0.8659 L 0.19696 -0.77527 L 0.26037 -0.68549 L 0.19625 -0.77418 L 0.13159 -0.86155 L 0.06658 -0.94734 L 0.00138 -1.03134 L -0.06382 -1.1133 L -0.12885 -1.19301 L -0.19352 -1.27025 L -0.25767 -1.3448 L -0.32112 -1.41647 L -0.38369 -1.48507 L -0.44522 -1.55039 L -0.50554 -1.61227 L -0.56448 -1.67054 L -0.62188 -1.72504 C -0.63 -1.73 -0.63 -1.74 -0.64016 -1.74137 C -0.65 -1.75 -0.65 -1.75 -0.65871 -1.75664 C -0.66 -1.76 -0.67 -1.76 -0.67415 -1.76836 C -0.68 -1.77 -0.68 -1.78 -0.68966 -1.77924 C -0.69 -1.78 -0.7 -1.79 -0.7052 -1.78924 C -0.71 -1.79 -0.72 -1.8 -0.72071 -1.7983 C -0.73 -1.8 -0.73 -1.8 -0.73617 -1.8064 C -0.74 -1.81 -0.75 -1.81 -0.75152 -1.81349 C -0.76 -1.82 -0.76 -1.82 -0.76674 -1.81956 C -0.77 -1.82 -0.78 -1.82 -0.78179 -1.82458 C -0.79 -1.83 -0.8 -1.83 -0.80261 -1.82981 C -0.81 -1.83 -0.82 -1.83 -0.82297 -1.83286 C -0.83 -1.83 -0.84 -1.83 -0.8428 -1.83371 C -0.85 -1.83 -0.85 -1.83 -0.85251 -1.8333 C -0.86 -1.83 -0.86 -1.83 -0.86208 -1.83233" />
    <path d="M -0.45732 -2.4544 L -0.57331 -2.27614" />
    <path d="M -0.34133 -2.63267 L -0.45732 -2.4544 L -0.46033 -2.44945 L -0.46312 -2.44419 L -0.4657 -2.43863 L -0.46804 -2.43276 L -0.47017 -2.42659 L -0.47208 -2.42012 L -0.47376 -2.41335 L -0.47521 -2.40628 L -0.47645 -2.39891 L -0.47746 -2.39125 L -0.47824 -2.3833 L -0.47881 -2.37505 L -0.47914 -2.36652 L -0.47926 -2.35769 L -0.4663 -2.24521 L -0.42775 -2.10268 L -0.36463 -1.93378 L -0.27855 -1.7429 L -0.17176 -1.53499 L -0.04702 -1.31543 L 0.09243 -1.08992 L 0.24299 -0.86429 L 0.40074 -0.64441 L 0.56161 -0.43595 L 0.72142 -0.24434 L 0.87602 -0.07454 L 1.02142 0.06906 L 1.15384 0.18273 L 1.17421 0.21613 L 1.19516 0.2494 L 1.21663 0.28244 L 1.23857 0.31519 L 1.26093 0.34756 L 1.28365 0.37947 L 1.30668 0.41085 L 1.32995 0.44162 L 1.35343 0.4717 L 1.37704 0.50102 L 1.40074 0.52952 L 1.42445 0.55711 L 1.44814 0.58374 L 1.47173 0.60934" />
    <path d="M -0.0928 -2.79888 L -0.0928 -2.51761" />
    <path d="M -0.0928 -2.79888 C -0.09 -2.81 -0.09 -2.81 -0.09253 -2.81983 C -0.09 -2.83 -0.09 -2.83 -0.09171 -2.84149 C -0.09 -2.85 -0.09 -2.86 -0.09034 -2.86372 C -0.09 -2.87 -0.09 -2.88 -0.08844 -2.88638 C -0.09 -2.89 -0.09 -2.9 -0.08601 -2.90934 C -0.09 -2.92 -0.08 -2.92 -0.08305 -2.93247 C -0.08 -2.94 -0.08 -2.95 -0.07957 -2.95565 C -0.08 -2.96 -0.08 -2.97 -0.07559 -2.97875 C -0.07 -2.99 -0.07 -3 -0.07069 -3.00378 C -0.07 -3.01 -0.07 -3.02 -0.0652 -3.02848 C -0.06 -3.03 -0.06 -3.04 -0.06225 -3.04067 C -0.06 -3.04 -0.06 -3.05 -0.05916 -3.05274 C -0.06 -3.06 -0.06 -3.06 -0.05593 -3.06467 C -0.05 -3.07 -0.05 -3.07 -0.05257 -3.07647 C -0.05 -3.07 -0.05 -3.07 -0.05278 -3.06242 C -0.05 -3.06 -0.05 -3.05 -0.0526 -3.04817 C -0.05 -3.04 -0.05 -3.03 -0.0511 -3.01916 C -0.05 -3.01 -0.05 -3 -0.04806 -2.98948 C -0.05 -2.98 -0.05 -2.97 -0.04353 -2.95922 C -0.04 -2.95 -0.04 -2.94 -0.03941 -2.93741 C -0.04 -2.93 -0.04 -2.92 -0.03456 -2.9154 C -0.03 -2.91 -0.03 -2.9 -0.02901 -2.89324 C -0.03 -2.89 -0.02 -2.88 -0.02277 -2.87097 C -0.02 -2.86 -0.02 -2.86 -0.01587 -2.84867 C -0.01 -2.84 -0.01 -2.83 -0.00834 -2.82638 C -0.01 -2.82 0 -2.81 -0.0002 -2.80416 C 0 -2.8 0.01 -2.79 0.00851 -2.7821 C 0.01 -2.77 0.02 -2.76 0.01977 -2.75564 C 0.02 -2.75 0.03 -2.74 0.03175 -2.72962 L 0.07156 -2.64808 L 0.11401 -2.56446 L 0.15898 -2.479 L 0.20636 -2.39192 L 0.25601 -2.30346 L 0.30779 -2.21387 L 0.36158 -2.12339 L 0.41721 -2.03226 L 0.47455 -1.94073 L 0.53343 -1.84905 L 0.59369 -1.75747 L 0.65517 -1.66624 L 0.7177 -1.57561 L 0.78112 -1.48583 L 0.71699 -1.57452 L 0.65234 -1.66189 L 0.58732 -1.74768 L 0.52212 -1.83168 L 0.45692 -1.91364 L 0.3919 -1.99335 L 0.32722 -2.07058 L 0.26307 -2.14514 L 0.19962 -2.21681 L 0.13705 -2.2854 L 0.07552 -2.35073 L 0.01521 -2.41261 L -0.04374 -2.47088 L -0.10114 -2.52538 C -0.11 -2.53 -0.11 -2.54 -0.11942 -2.54171 C -0.13 -2.55 -0.13 -2.55 -0.13797 -2.55698 C -0.14 -2.56 -0.15 -2.56 -0.15341 -2.5687 C -0.16 -2.57 -0.16 -2.58 -0.16892 -2.57958 C -0.17 -2.58 -0.18 -2.59 -0.18445 -2.58957 C -0.19 -2.59 -0.19 -2.6 -0.19997 -2.59864 C -0.21 -2.6 -0.21 -2.6 -0.21542 -2.60674 C -0.22 -2.61 -0.23 -2.61 -0.23078 -2.61383 C -0.24 -2.62 -0.24 -2.62 -0.246 -2.6199 C -0.25 -2.62 -0.26 -2.62 -0.26104 -2.62491 C -0.27 -2.63 -0.28 -2.63 -0.28187 -2.63014 C -0.29 -2.63 -0.3 -2.63 -0.30222 -2.6332 C -0.31 -2.63 -0.32 -2.63 -0.32206 -2.63405 C -0.33 -2.63 -0.33 -2.63 -0.33177 -2.63364 C -0.33 -2.63 -0.34 -2.63 -0.34133 -2.63267" />
    <path d="M 0.06342 -3.25474 L -0.05257 -3.07647" />
    <path d="M 0.17941 -3.433 L 0.06342 -3.25474 L 0.06041 -3.24979 L 0.05762 -3.24453 L 0.05505 -3.23896 L 0.0527 -3.2331 L 0.05057 -3.22693 L 0.04867 -3.22046 L 0.04699 -3.21369 L 0.04553 -3.20662 L 0.0443 -3.19925 L 0.04329 -3.19159 L 0.0425 -3.18364 L 0.04194 -3.17539 L 0.0416 -3.16686 L 0.04149 -3.15803 L 0.05445 -3.04555 L 0.09299 -2.90302 L 0.15612 -2.73412 L 0.24219 -2.54324 L 0.34898 -2.33533 L 0.47372 -2.11577 L 0.61318 -1.89026 L 0.76373 -1.66463 L 0.92149 -1.44474 L 1.08235 -1.23629 L 1.24216 -1.04468 L 1.39677 -0.87488 L 1.54216 -0.73128 L 1.67459 -0.61761 L 1.69496 -0.5842 L 1.71591 -0.55094 L 1.73737 -0.51789 L 1.75931 -0.48515 L 1.78167 -0.45278 L 1.80439 -0.42086 L 1.82742 -0.38949 L 1.8507 -0.35872 L 1.87417 -0.32864 L 1.89779 -0.29932 L 1.92148 -0.27082 L 1.9452 -0.24323 L 1.96888 -0.2166 L 1.99247 -0.191" />
    <path d="M 0.27172 -3.42133 L 0.27172 -4.11505 L -2.1237 -0.4335" />
    <path d="M 0.0272 -4.13209 L 0.27172 -4.11505" />
    <path d="M -0.14793 2.18343 C -0.15 2.19 -0.15 2.2 -0.15126 2.20166 C -0.15 2.21 -0.15 2.21 -0.15423 2.2204 C -0.16 2.23 -0.16 2.23 -0.15679 2.23962 C -0.16 2.25 -0.16 2.25 -0.15893 2.2593 C -0.16 2.27 -0.16 2.27 -0.16062 2.27941 C -0.16 2.29 -0.16 2.29 -0.16184 2.29993 C -0.16 2.31 -0.16 2.31 -0.16258 2.32082 C -0.16 2.33 -0.16 2.33 -0.16283 2.34207 C -0.16 2.35 -0.16 2.35 -0.16267 2.35925 C -0.16 2.37 -0.16 2.37 -0.1622 2.3766 C -0.16 2.38 -0.16 2.39 -0.16142 2.39409 C -0.16 2.4 -0.16 2.41 -0.16033 2.41172 C -0.16 2.42 -0.16 2.42 -0.15894 2.42945 C -0.16 2.44 -0.16 2.44 -0.15727 2.44728 C -0.16 2.45 -0.16 2.46 -0.15532 2.46518 C -0.15 2.47 -0.15 2.48 -0.15311 2.48312 C -0.15 2.49 -0.15 2.5 -0.15042 2.50277 C -0.15 2.51 -0.15 2.52 -0.14745 2.52243 C -0.15 2.53 -0.15 2.54 -0.14423 2.54209 C -0.14 2.55 -0.14 2.56 -0.14078 2.56173 C -0.14 2.57 -0.14 2.58 -0.13425 2.59609 C -0.13 2.61 -0.13 2.62 -0.12722 2.63021 C -0.12 2.64 -0.12 2.65 -0.11982 2.66403 C -0.12 2.68 -0.11 2.69 -0.11219 2.69747 C -0.11 2.71 -0.11 2.72 -0.10444 2.73048 C -0.1 2.74 -0.1 2.75 -0.0967 2.76299 C -0.09 2.77 -0.09 2.78 -0.08908 2.79493 C -0.09 2.81 -0.08 2.82 -0.0817 2.82623 C -0.06 2.9 -0.05 2.98 -0.0434 3.03755 C -0.04 3.05 -0.04 3.07 -0.04149 3.08015 C -0.04 3.08 -0.04 3.09 -0.04169 3.09255 C -0.04 3.1 -0.04 3.1 -0.04228 3.10442" />
    <path d="M 0.15752 2.62915 L 0.13898 2.59579 L 0.11974 2.56234 L 0.09983 2.52889 L 0.07932 2.49551 L 0.05824 2.46229 L 0.03665 2.42931 L 0.0146 2.39665 L -0.00785 2.36438 L -0.03065 2.33259 L -0.05374 2.30136 L -0.07707 2.27075 L -0.10058 2.24084 L -0.12422 2.21172 L -0.14793 2.18343 L -0.24043 1.97624 L -0.35773 1.7486 L -0.49619 1.50755 L -0.65152 1.26055 L -0.81893 1.01524 L -0.99323 0.77923 L -1.16901 0.5598 L -1.34086 0.36377 L -1.50343 0.19718 L -1.65171 0.0652 L -1.7811 -0.02808 L -1.8876 -0.07978 L -1.96792 -0.08831 L -2.01955 -0.05339" />
    <path d="M 0.78112 -1.48583 L 0.87561 -1.35584 L 0.97108 -1.22897 L 1.06697 -1.10596 L 1.16271 -0.98755 L 1.25773 -0.87443 L 1.35148 -0.76726 L 1.4434 -0.66668 L 1.53296 -0.57327 L 1.61963 -0.48759 L 1.70289 -0.41014 L 1.78226 -0.34138 L 1.85727 -0.28171 L 1.92748 -0.23149 L 1.99247 -0.191" />
    <path d="M 0.03175 -2.72962 A 1.25 0.40914 0 0 1 -0.0928 -2.79888" />
    <path d="M -0.48899 -1.92929 A 1.25 0.40914 0 0 1 -0.61354 -1.99854" />
    <path d="M 1.71976 0.22814 L 1.68914 0.13482 L 1.65164 0.03432 L 1.60749 -0.07277 L 1.55694 -0.18582 L 1.50029 -0.30418 L 1.43787 -0.42713 L 1.37006 -0.55396 L 1.29725 -0.68391 L 1.21986 -0.81623 L 1.13836 -0.95014 L 1.05323 -1.08485 L 0.96496 -1.21956 L 0.87408 -1.35348 L 0.78112 -1.48583" />
    <path d="M 1.71976 0.22814 L 1.70122 0.19478 L 1.68197 0.16133 L 1.66207 0.12788 L 1.64155 0.0945 L 1.62047 0.06128 L 1.59888 0.0283 L 1.57684 -0.00436 L 1.55439 -0.03663 L 1.53159 -0.06842 L 1.50849 -0.09966 L 1.48516 -0.13026 L 1.46165 -0.16017 L 1.43801 -0.1893 L 1.41431 -0.21758 C 1.41 -0.21 1.41 -0.21 1.41097 -0.19935 C 1.41 -0.19 1.41 -0.19 1.40801 -0.18061 C 1.41 -0.17 1.41 -0.17 1.40544 -0.16139 C 1.4 -0.15 1.4 -0.15 1.4033 -0.14171 C 1.4 -0.14 1.4 -0.13 1.40161 -0.1216 C 1.4 -0.11 1.4 -0.11 1.40039 -0.10109 C 1.4 -0.09 1.4 -0.09 1.39965 -0.08019 C 1.4 -0.07 1.4 -0.07 1.3994 -0.05894 C 1.4 -0.05 1.4 -0.05 1.39956 -0.04176 C 1.4 -0.04 1.4 -0.03 1.40003 -0.02442 C 1.4 -0.02 1.4 -0.01 1.40082 -0.00692 C 1.4 0 1.4 0 1.40191 0.0107 C 1.4 0.02 1.4 0.02 1.40329 0.02844 C 1.4 0.03 1.4 0.04 1.40496 0.04627 C 1.41 0.05 1.41 0.06 1.40691 0.06416 C 1.41 0.07 1.41 0.08 1.40912 0.0821 C 1.41 0.09 1.41 0.1 1.41182 0.10175 C 1.41 0.11 1.41 0.11 1.41479 0.12142 C 1.42 0.13 1.42 0.13 1.41801 0.14108 C 1.42 0.15 1.42 0.15 1.42145 0.16072 C 1.42 0.17 1.43 0.18 1.42799 0.19508 C 1.43 0.21 1.43 0.22 1.43502 0.2292 C 1.44 0.24 1.44 0.25 1.44241 0.26301 C 1.44 0.27 1.45 0.29 1.45004 0.29646 C 1.45 0.31 1.46 0.32 1.45779 0.32947 C 1.46 0.34 1.46 0.35 1.46553 0.36198 C 1.47 0.37 1.47 0.38 1.47315 0.39392 C 1.48 0.4 1.48 0.41 1.48053 0.42522 C 1.5 0.5 1.51 0.58 1.51883 0.63654 C 1.52 0.65 1.52 0.67 1.52074 0.67914 C 1.52 0.68 1.52 0.69 1.52055 0.69153 C 1.52 0.7 1.52 0.7 1.51995 0.70341" />
    <path d="M 1.41431 -0.21758 L 1.3218 -0.42477 L 1.20451 -0.65241 L 1.06605 -0.89346 L 0.91071 -1.14047 L 0.7433 -1.38577 L 0.56901 -1.62179 L 0.39322 -1.84121 L 0.22138 -2.03725 L 0.0588 -2.20383 L -0.08948 -2.33581 L -0.21887 -2.42909 L -0.32537 -2.4808 L -0.40568 -2.48932 L -0.45732 -2.4544" />
    <path d="M 0.26037 -0.68549 L 0.35487 -0.5555 L 0.45034 -0.42863 L 0.54623 -0.30563 L 0.64196 -0.18722 L 0.73698 -0.07409 L 0.83073 0.03308 L 0.92266 0.13366 L 1.01222 0.22707 L 1.09888 0.31274 L 1.18215 0.39019 L 1.26152 0.45895 L 1.33653 0.51862 L 1.40674 0.56885 L 1.47173 0.60934" />
    <path d="M -1.00974 -1.12895 A 1.25 0.40914 0 0 1 -1.13429 -1.1982" />
    <path d="M 1.19901 1.02848 L 1.16839 0.93516 L 1.1309 0.83466 L 1.08674 0.72757 L 1.03619 0.61451 L 0.97954 0.49616 L 0.91713 0.37321 L 0.84931 0.24638 L 0.7765 0.11643 L 0.69912 -0.0159 L 0.61762 -0.1498 L 0.53249 -0.28451 L 0.44422 -0.41922 L 0.35333 -0.55314 L 0.26037 -0.68549" />
    <path d="M 1.19901 1.02848 L 1.18047 0.99512 L 1.16123 0.96167 L 1.14132 0.92821 L 1.1208 0.89484 L 1.09973 0.86162 L 1.07814 0.82864 L 1.05609 0.79597 L 1.03364 0.76371 L 1.01084 0.73192 L 0.98775 0.70068 L 0.96442 0.67007 L 0.9409 0.64017 L 0.91727 0.61104 L 0.89356 0.58276 C 0.89 0.59 0.89 0.59 0.89023 0.60099 C 0.89 0.61 0.89 0.61 0.88726 0.61973 C 0.89 0.63 0.89 0.63 0.8847 0.63895 C 0.88 0.65 0.88 0.65 0.88256 0.65863 C 0.88 0.67 0.88 0.67 0.88087 0.67874 C 0.88 0.69 0.88 0.69 0.87965 0.69925 C 0.88 0.71 0.88 0.71 0.87891 0.72015 C 0.88 0.73 0.88 0.73 0.87866 0.74139 C 0.88 0.75 0.88 0.75 0.87882 0.75857 C 0.88 0.76 0.88 0.77 0.87929 0.77592 C 0.88 0.78 0.88 0.79 0.88007 0.79342 C 0.88 0.8 0.88 0.81 0.88116 0.81104 C 0.88 0.82 0.88 0.82 0.88255 0.82878 C 0.88 0.83 0.88 0.84 0.88422 0.84661 C 0.88 0.85 0.89 0.86 0.88617 0.8645 C 0.89 0.87 0.89 0.88 0.88838 0.88244 C 0.89 0.89 0.89 0.9 0.89107 0.90209 C 0.89 0.91 0.89 0.92 0.89404 0.92176 C 0.9 0.93 0.9 0.93 0.89726 0.94142 C 0.9 0.95 0.9 0.95 0.90071 0.96105 C 0.9 0.97 0.9 0.98 0.90724 0.99542 C 0.91 1.01 0.91 1.02 0.91427 1.02954 C 0.92 1.04 0.92 1.05 0.92167 1.06335 C 0.92 1.07 0.93 1.09 0.9293 1.0968 C 0.93 1.11 0.93 1.12 0.93705 1.12981 C 0.94 1.14 0.94 1.15 0.94479 1.16231 C 0.95 1.17 0.95 1.18 0.9524 1.19425 C 0.95 1.2 0.96 1.22 0.95979 1.22556 C 0.98 1.3 0.99 1.38 0.99809 1.43687 C 1 1.45 1 1.47 1 1.47947 C 1 1.48 1 1.49 0.9998 1.49187 C 1 1.5 1 1.5 0.99921 1.50375" />
    <path d="M 0.89356 0.58276 L 0.80106 0.37557 L 0.68376 0.14793 L 0.5453 -0.09313 L 0.38996 -0.34013 L 0.22256 -0.58543 L 0.04826 -0.82145 L -0.12753 -1.04087 L -0.29937 -1.23691 L -0.46194 -1.40349 L -0.61022 -1.53547 L -0.73961 -1.62876 L -0.84611 -1.68046 L -0.92643 -1.68898 L -0.97807 -1.65406" />
    <path d="M -0.26037 0.11485 L -0.16588 0.24484 L -0.07041 0.37171 L 0.02548 0.49471 L 0.12122 0.61312 L 0.21624 0.72625 L 0.30999 0.83341 L 0.40191 0.934 L 0.49147 1.0274 L 0.57814 1.11308 L 0.6614 1.19053 L 0.74077 1.25929 L 0.81578 1.31896 L 0.88599 1.36919 L 0.95099 1.40967" />
    <path d="M -1.53048 -0.32861 A 1.25 0.40914 0 0 1 -1.65503 -0.39787" />
    <path d="M 0.67827 1.82882 L 0.64765 1.7355 L 0.61015 1.635 L 0.566 1.52791 L 0.51545 1.41485 L 0.4588 1.2965 L 0.39638 1.17355 L 0.32857 1.04672 L 0.25576 0.91676 L 0.17837 0.78444 L 0.09688 0.65053 L 0.01174 0.51583 L -0.07653 0.38112 L -0.16741 0.2472 L -0.26037 0.11485" />
    <path d="M 0.67827 1.82882 L 0.65973 1.79545 L 0.64048 1.76201 L 0.62058 1.72855 L 0.60006 1.69517 L 0.57898 1.66196 L 0.55739 1.62897 L 0.53535 1.59631 L 0.5129 1.56405 L 0.4901 1.53226 L 0.46701 1.50102 L 0.44367 1.47041 L 0.42016 1.44051 L 0.39652 1.41138 L 0.37282 1.3831 C 0.37 1.39 0.37 1.4 0.36948 1.40133 C 0.37 1.41 0.37 1.41 0.36652 1.42006 C 0.37 1.43 0.36 1.43 0.36395 1.43929 C 0.36 1.45 0.36 1.45 0.36181 1.45897 C 0.36 1.47 0.36 1.47 0.36012 1.47907 C 0.36 1.49 0.36 1.49 0.3589 1.49959 C 0.36 1.51 0.36 1.51 0.35816 1.52048 C 0.36 1.53 0.36 1.53 0.35791 1.54173 C 0.36 1.55 0.36 1.55 0.35807 1.55891 C 0.36 1.56 0.36 1.57 0.35854 1.57626 C 0.36 1.58 0.36 1.59 0.35933 1.59375 C 0.36 1.6 0.36 1.61 0.36042 1.61138 C 0.36 1.62 0.36 1.62 0.3618 1.62912 C 0.36 1.64 0.36 1.64 0.36348 1.64694 C 0.36 1.65 0.36 1.66 0.36542 1.66484 C 0.37 1.67 0.37 1.68 0.36763 1.68278 C 0.37 1.69 0.37 1.7 0.37033 1.70243 C 0.37 1.71 0.37 1.72 0.3733 1.7221 C 0.37 1.73 0.38 1.74 0.37652 1.74176 C 0.38 1.75 0.38 1.75 0.37997 1.76139 C 0.38 1.77 0.38 1.78 0.3865 1.79575 C 0.39 1.81 0.39 1.82 0.39353 1.82987 C 0.4 1.84 0.4 1.85 0.40092 1.86369 C 0.4 1.87 0.41 1.89 0.40855 1.89713 C 0.41 1.91 0.41 1.92 0.4163 1.93014 C 0.42 1.94 0.42 1.95 0.42404 1.96265 C 0.43 1.97 0.43 1.98 0.43166 1.99459 C 0.43 2.01 0.44 2.02 0.43904 2.02589 C 0.46 2.1 0.47 2.18 0.47735 2.23721 C 0.48 2.25 0.48 2.27 0.47926 2.27981 C 0.48 2.28 0.48 2.29 0.47906 2.29221 C 0.48 2.3 0.48 2.3 0.47846 2.30408" />
    <path d="M 0.37282 1.3831 L 0.28031 1.17591 L 0.16302 0.94826 L 0.02456 0.70721 L -0.13078 0.46021 L -0.29819 0.2149 L -0.47248 -0.02111 L -0.64827 -0.24053 L -0.82011 -0.43657 L -0.98269 -0.60316 L -1.13097 -0.73513 L -1.26036 -0.82842 L -1.36686 -0.88012 L -1.44717 -0.88865 L -1.49881 -0.85373" />
    <path d="M 2.2405 -0.5722 C 2.24 -0.56 2.24 -0.54 2.24672 -0.52567 C 2.25 -0.51 2.25 -0.49 2.25329 -0.47961 C 2.26 -0.46 2.26 -0.45 2.25998 -0.43423 C 2.26 -0.42 2.26 -0.4 2.26656 -0.38975 C 2.27 -0.38 2.27 -0.37 2.27129 -0.35707 C 2.27 -0.35 2.27 -0.34 2.27574 -0.32507 C 2.28 -0.31 2.28 -0.3 2.2798 -0.29386 C 2.28 -0.28 2.28 -0.27 2.2834 -0.26352 C 2.28 -0.25 2.29 -0.24 2.28644 -0.23415 C 2.29 -0.22 2.29 -0.22 2.28884 -0.20584 C 2.29 -0.2 2.29 -0.19 2.29051 -0.17868 C 2.29 -0.17 2.29 -0.16 2.29138 -0.15276 C 2.29 -0.15 2.29 -0.14 2.29149 -0.14024 L 2.29149 0.24191" />
    <path d="M 2.29149 -0.14024 C 2.29 -0.13 2.29 -0.13 2.2911 -0.11819 C 2.29 -0.11 2.29 -0.1 2.28989 -0.09741 C 2.29 -0.09 2.29 -0.08 2.28784 -0.07798 C 2.29 -0.07 2.29 -0.07 2.2849 -0.05999 C 2.28 -0.05 2.28 -0.05 2.28106 -0.04349 C 2.28 -0.04 2.28 -0.03 2.27631 -0.02855 C 2.27 -0.02 2.27 -0.02 2.27065 -0.01524 C 2.27 -0.01 2.27 -0.01 2.26407 -0.00359 C 2.26 0 2.26 0 2.25798 0.00473 C 2.26 0.01 2.25 0.01 2.2513 0.01185 C 2.25 0.01 2.25 0.02 2.24406 0.01778 C 2.24 0.02 2.24 0.02 2.23628 0.02251 C 2.23 0.02 2.23 0.03 2.22797 0.02603 C 2.23 0.03 2.22 0.03 2.21919 0.02834 C 2.22 0.03 2.21 0.03 2.20995 0.02944 C 2.21 0.03 2.2 0.03 2.20031 0.02935 C 2.2 0.03 2.19 0.03 2.18841 0.02771 C 2.18 0.03 2.18 0.03 2.17608 0.02444 C 2.17 0.02 2.17 0.02 2.16172 0.01883 C 2.16 0.02 2.15 0.01 2.14699 0.01123 C 2.14 0.01 2.14 0.01 2.13201 0.00169 C 2.13 0 2.12 -0.01 2.11689 -0.00974 C 2.11 -0.01 2.11 -0.02 2.10174 -0.02298 C 2.1 -0.03 2.09 -0.03 2.08669 -0.038 C 2.08 -0.04 2.08 -0.05 2.07184 -0.05472 C 2.07 -0.06 2.06 -0.07 2.05732 -0.07308 C 2.05 -0.08 2.05 -0.09 2.03938 -0.09896 C 2.03 -0.11 2.03 -0.12 2.02242 -0.12733 C 2.02 -0.14 2.01 -0.15 2.0067 -0.15805 C 2 -0.17 2 -0.18 1.99247 -0.191" />
    <path d="M 2.2405 -0.5722 L 2.18512 -0.73311 L 2.11076 -0.91315 L 2.01865 -1.10935 L 1.91031 -1.31843 L 1.78756 -1.53693 L 1.65243 -1.76123 L 1.50715 -1.9876 L 1.35415 -2.21228 L 1.19596 -2.43155 L 1.0352 -2.64176 L 0.87455 -2.83943 L 0.71666 -3.02127 L 0.56417 -3.18427 L 0.41961 -3.32572 C 0.41 -3.33 0.41 -3.34 0.40132 -3.34205 C 0.4 -3.35 0.39 -3.35 0.38278 -3.35731 C 0.38 -3.36 0.37 -3.37 0.36734 -3.36904 C 0.36 -3.37 0.36 -3.38 0.35183 -3.37992 C 0.35 -3.38 0.34 -3.39 0.33629 -3.38991 C 0.33 -3.39 0.33 -3.4 0.32078 -3.39898 C 0.32 -3.4 0.31 -3.4 0.30532 -3.40707 C 0.3 -3.41 0.3 -3.41 0.28997 -3.41417 C 0.28 -3.42 0.28 -3.42 0.27475 -3.42024 C 0.27 -3.42 0.26 -3.42 0.2597 -3.42525 C 0.25 -3.43 0.25 -3.43 0.23888 -3.43048 C 0.23 -3.43 0.23 -3.43 0.21852 -3.43354 C 0.21 -3.43 0.21 -3.43 0.19869 -3.43438 C 0.2 -3.43 0.19 -3.43 0.18898 -3.43397 C 0.19 -3.43 0.18 -3.43 0.17941 -3.433" />
    <path d="M 1.76652 0.5752 A 1.25 0.40914 180 0 0 2.29149 0.24191" />
    <path d="M 2.2405 -0.5722 L 2.22196 -0.60556 L 2.20272 -0.63901 L 2.18281 -0.67246 L 2.16229 -0.70584 L 2.14122 -0.73906 L 2.11963 -0.77204 L 2.09758 -0.8047 L 2.07513 -0.83697 L 2.05233 -0.86876 L 2.02924 -0.89999 L 2.00591 -0.9306 L 1.98239 -0.96051 L 1.95875 -0.98964 L 1.93505 -1.01792 C 1.93 -1.01 1.93 -1.01 1.93172 -0.99969 C 1.93 -0.99 1.93 -0.99 1.92875 -0.98095 C 1.93 -0.97 1.93 -0.97 1.92619 -0.96173 C 1.93 -0.96 1.92 -0.95 1.92405 -0.94205 C 1.92 -0.94 1.92 -0.93 1.92236 -0.92194 C 1.92 -0.92 1.92 -0.91 1.92113 -0.90142 C 1.92 -0.89 1.92 -0.89 1.9204 -0.88053 C 1.92 -0.87 1.92 -0.87 1.92015 -0.85928 C 1.92 -0.85 1.92 -0.85 1.92031 -0.8421 C 1.92 -0.84 1.92 -0.83 1.92078 -0.82476 C 1.92 -0.82 1.92 -0.81 1.92156 -0.80726 C 1.92 -0.8 1.92 -0.8 1.92265 -0.78963 C 1.92 -0.78 1.92 -0.78 1.92404 -0.7719 C 1.92 -0.77 1.93 -0.76 1.92571 -0.75407 C 1.93 -0.75 1.93 -0.74 1.92766 -0.73617 C 1.93 -0.73 1.93 -0.72 1.92986 -0.71823 C 1.93 -0.71 1.93 -0.71 1.93256 -0.69858 C 1.93 -0.69 1.93 -0.69 1.93553 -0.67892 C 1.94 -0.67 1.94 -0.67 1.93875 -0.65926 C 1.94 -0.65 1.94 -0.65 1.9422 -0.63962 C 1.94 -0.63 1.95 -0.62 1.94873 -0.60526 C 1.95 -0.59 1.95 -0.58 1.95576 -0.57114 C 1.96 -0.56 1.96 -0.55 1.96315 -0.53732 C 1.97 -0.53 1.97 -0.51 1.97079 -0.50388 C 1.97 -0.49 1.98 -0.48 1.97853 -0.47087 C 1.98 -0.46 1.98 -0.45 1.98628 -0.43836 C 1.99 -0.43 1.99 -0.42 1.99389 -0.40642 C 2 -0.4 2 -0.39 2.00128 -0.37512 C 2.02 -0.3 2.03 -0.22 2.03958 -0.1638 C 2.04 -0.15 2.04 -0.13 2.04149 -0.1212 C 2.04 -0.12 2.04 -0.11 2.04129 -0.1088 C 2.04 -0.1 2.04 -0.1 2.04069 -0.09693" />
    <path d="M 1.93505 -1.01792 L 1.84255 -1.22511 L 1.72525 -1.45275 L 1.58679 -1.6938 L 1.43145 -1.9408 L 1.26405 -2.18611 L 1.08975 -2.42212 L 0.91396 -2.64155 L 0.74212 -2.83758 L 0.57955 -3.00417 L 0.43127 -3.13615 L 0.30188 -3.22943 L 0.19538 -3.28114 L 0.11506 -3.28966 L 0.06342 -3.25474" />
    <path d="M 1.24578 1.37553 A 1.25 0.40914 180 0 0 1.77074 1.04225" />
    <path d="M 1.71976 0.22814 C 1.72 0.24 1.72 0.26 1.72598 0.27467 C 1.73 0.29 1.73 0.31 1.73254 0.32073 C 1.73 0.34 1.74 0.35 1.73923 0.36611 C 1.74 0.38 1.74 0.4 1.74581 0.41059 C 1.75 0.42 1.75 0.43 1.75054 0.44327 C 1.75 0.45 1.75 0.46 1.75499 0.47526 C 1.76 0.49 1.76 0.5 1.75906 0.50648 C 1.76 0.52 1.76 0.53 1.76266 0.53682 C 1.76 0.55 1.76 0.56 1.7657 0.56619 C 1.77 0.58 1.77 0.59 1.76809 0.5945 C 1.77 0.6 1.77 0.61 1.76976 0.62166 C 1.77 0.63 1.77 0.64 1.77063 0.64758 C 1.77 0.65 1.77 0.66 1.77074 0.6601 L 1.77074 1.04225" />
    <path d="M 1.77074 0.6601 C 1.77 0.67 1.77 0.68 1.77035 0.68215 C 1.77 0.69 1.77 0.7 1.76915 0.70293 C 1.77 0.71 1.77 0.72 1.76709 0.72235 C 1.77 0.73 1.77 0.73 1.76416 0.74035 C 1.76 0.75 1.76 0.75 1.76032 0.75685 C 1.76 0.76 1.76 0.77 1.75557 0.77179 C 1.75 0.78 1.75 0.78 1.7499 0.7851 C 1.75 0.79 1.75 0.79 1.74333 0.79675 C 1.74 0.8 1.74 0.8 1.73724 0.80506 C 1.74 0.81 1.73 0.81 1.73056 0.81219 C 1.73 0.81 1.73 0.82 1.72332 0.81812 C 1.72 0.82 1.72 0.82 1.71553 0.82285 C 1.71 0.82 1.71 0.83 1.70723 0.82637 C 1.7 0.83 1.7 0.83 1.69844 0.82867 C 1.7 0.83 1.69 0.83 1.68921 0.82978 C 1.69 0.83 1.68 0.83 1.67956 0.82969 C 1.68 0.83 1.67 0.83 1.66767 0.82805 C 1.66 0.83 1.66 0.83 1.65534 0.82478 C 1.65 0.82 1.65 0.82 1.64097 0.81917 C 1.64 0.82 1.63 0.81 1.62625 0.81156 C 1.62 0.81 1.62 0.81 1.61127 0.80202 C 1.61 0.8 1.6 0.79 1.59615 0.7906 C 1.59 0.79 1.59 0.78 1.581 0.77735 C 1.58 0.77 1.57 0.77 1.56594 0.76234 C 1.56 0.76 1.56 0.75 1.55109 0.74562 C 1.55 0.74 1.54 0.73 1.53658 0.72725 C 1.53 0.72 1.52 0.71 1.51863 0.70138 C 1.51 0.69 1.51 0.68 1.50167 0.67301 C 1.5 0.66 1.49 0.65 1.48596 0.64228 C 1.48 0.63 1.48 0.62 1.47173 0.60934" />
    <path d="M 0.72503 2.17587 A 1.25 0.40914 180 0 0 1.25 1.84259" />
    <path d="M 1.19901 1.02848 C 1.2 1.04 1.2 1.06 1.20523 1.07501 C 1.21 1.09 1.21 1.11 1.2118 1.12107 C 1.21 1.14 1.22 1.15 1.21849 1.16645 C 1.22 1.18 1.22 1.2 1.22507 1.21093 C 1.23 1.22 1.23 1.23 1.2298 1.24361 C 1.23 1.25 1.23 1.27 1.23425 1.2756 C 1.24 1.29 1.24 1.3 1.23832 1.30681 C 1.24 1.32 1.24 1.33 1.24191 1.33715 C 1.24 1.35 1.24 1.36 1.24495 1.36652 C 1.25 1.38 1.25 1.39 1.24735 1.39484 C 1.25 1.4 1.25 1.41 1.24902 1.422 C 1.25 1.43 1.25 1.44 1.24989 1.44792 C 1.25 1.45 1.25 1.46 1.25 1.46044 L 1.25 1.84259" />
    <path d="M 1.25 1.46044 C 1.25 1.47 1.25 1.48 1.24961 1.48248 C 1.25 1.49 1.25 1.5 1.2484 1.50326 C 1.25 1.51 1.25 1.52 1.24635 1.52269 C 1.25 1.53 1.24 1.53 1.24341 1.54069 C 1.24 1.55 1.24 1.55 1.23958 1.55719 C 1.24 1.56 1.24 1.57 1.23483 1.57212 C 1.23 1.58 1.23 1.58 1.22916 1.58544 C 1.23 1.59 1.22 1.59 1.22258 1.59709 C 1.22 1.6 1.22 1.6 1.21649 1.6054 C 1.21 1.61 1.21 1.61 1.20982 1.61253 C 1.21 1.61 1.21 1.62 1.20257 1.61846 C 1.2 1.62 1.2 1.62 1.19479 1.62319 C 1.19 1.62 1.19 1.63 1.18649 1.6267 C 1.18 1.63 1.18 1.63 1.1777 1.62901 C 1.17 1.63 1.17 1.63 1.16846 1.63012 C 1.17 1.63 1.16 1.63 1.15882 1.63003 C 1.15 1.63 1.15 1.63 1.14693 1.62839 C 1.14 1.63 1.14 1.63 1.13459 1.62512 C 1.13 1.62 1.13 1.62 1.12023 1.6195 C 1.12 1.62 1.11 1.61 1.1055 1.6119 C 1.1 1.61 1.1 1.61 1.09052 1.60236 C 1.09 1.6 1.08 1.6 1.0754 1.59094 C 1.07 1.59 1.07 1.58 1.06026 1.57769 C 1.06 1.57 1.05 1.57 1.0452 1.56268 C 1.04 1.56 1.04 1.55 1.03035 1.54595 C 1.03 1.54 1.02 1.53 1.01584 1.52759 C 1.01 1.52 1 1.51 0.99789 1.50172 C 0.99 1.49 0.99 1.48 0.98093 1.47335 C 0.98 1.46 0.97 1.45 0.96521 1.44262 C 0.96 1.43 0.96 1.42 0.95099 1.40967" />
    <path d="M 0.20429 2.97621 A 1.25 0.40914 180 0 0 0.72926 2.64292" />
    <path d="M 0.67827 1.82882 C 0.68 1.84 0.68 1.86 0.68449 1.87535 C 0.69 1.89 0.69 1.91 0.69105 1.92141 C 0.69 1.94 0.7 1.95 0.69774 1.96678 C 0.7 1.98 0.7 2 0.70433 2.01127 C 0.71 2.02 0.71 2.03 0.70906 2.04395 C 0.71 2.05 0.71 2.07 0.7135 2.07594 C 0.71 2.09 0.72 2.1 0.71757 2.10715 C 0.72 2.12 0.72 2.13 0.72117 2.13749 C 0.72 2.15 0.72 2.16 0.72421 2.16686 C 0.73 2.18 0.73 2.19 0.7266 2.19517 C 0.73 2.2 0.73 2.21 0.72827 2.22234 C 0.73 2.23 0.73 2.24 0.72914 2.24826 C 0.73 2.25 0.73 2.26 0.72926 2.26077 L 0.72926 2.64292" />
    <path d="M 0.72926 2.26077 C 0.73 2.27 0.73 2.28 0.72886 2.28282 C 0.73 2.29 0.73 2.3 0.72766 2.3036 C 0.73 2.31 0.73 2.32 0.7256 2.32303 C 0.72 2.33 0.72 2.34 0.72267 2.34103 C 0.72 2.35 0.72 2.35 0.71883 2.35753 C 0.72 2.36 0.72 2.37 0.71408 2.37246 C 0.71 2.38 0.71 2.38 0.70841 2.38578 C 0.71 2.39 0.7 2.39 0.70184 2.39743 C 0.7 2.4 0.7 2.4 0.69575 2.40574 C 0.69 2.41 0.69 2.41 0.68907 2.41287 C 0.69 2.42 0.68 2.42 0.68183 2.4188 C 0.68 2.42 0.68 2.42 0.67404 2.42352 C 0.67 2.42 0.67 2.43 0.66574 2.42704 C 0.66 2.43 0.66 2.43 0.65695 2.42935 C 0.65 2.43 0.65 2.43 0.64772 2.43045 C 0.64 2.43 0.64 2.43 0.63807 2.43036 C 0.63 2.43 0.63 2.43 0.62618 2.42873 C 0.62 2.43 0.62 2.43 0.61385 2.42546 C 0.61 2.42 0.6 2.42 0.59948 2.41984 C 0.59 2.42 0.59 2.42 0.58476 2.41224 C 0.58 2.41 0.57 2.41 0.56978 2.4027 C 0.56 2.4 0.56 2.4 0.55466 2.39128 C 0.55 2.39 0.54 2.38 0.53951 2.37803 C 0.53 2.37 0.53 2.37 0.52445 2.36301 C 0.52 2.36 0.51 2.35 0.50961 2.34629 C 0.5 2.34 0.5 2.33 0.49509 2.32793 C 0.49 2.32 0.48 2.31 0.47714 2.30205 C 0.47 2.29 0.47 2.28 0.46018 2.27369 C 0.45 2.26 0.45 2.25 0.44447 2.24296 C 0.44 2.23 0.43 2.22 0.43024 2.21001" />
    <path d="M -2.29149 2.38955 L -2.29149 3.44326 C -2.29 3.45 -2.29 3.46 -2.29037 3.47325 C -2.29 3.48 -2.29 3.49 -2.28701 3.50313 C -2.29 3.51 -2.28 3.52 -2.28141 3.53282 C -2.28 3.54 -2.28 3.55 -2.27357 3.56221 C -2.27 3.57 -2.27 3.58 -2.2635 3.59121 C -2.26 3.6 -2.26 3.61 -2.2512 3.61975 C -2.25 3.63 -2.24 3.64 -2.23665 3.64772 C -2.23 3.66 -2.23 3.67 -2.21986 3.67507 C -2.21 3.68 -2.21 3.69 -2.2007 3.70187 C -2.19 3.71 -2.19 3.72 -2.17924 3.72791 C -2.17 3.74 -2.16 3.74 -2.15709 3.75151 C -2.15 3.76 -2.14 3.77 -2.13292 3.77436 C -2.12 3.78 -2.12 3.79 -2.10673 3.7964 C -2.1 3.8 -2.09 3.81 -2.07852 3.81762 C -2.07 3.82 -2.07 3.83 -2.05865 3.83125 C -2.05 3.84 -2.04 3.84 -2.03791 3.8445 C -2.03 3.85 -2.02 3.85 -2.01629 3.85736 C -2.01 3.86 -2 3.87 -1.99382 3.86982 C -1.99 3.87 -1.98 3.88 -1.9705 3.88189 C -1.96 3.89 -1.95 3.89 -1.94635 3.89356 C -1.94 3.9 -1.93 3.9 -1.92138 3.90483 C -1.91 3.91 -1.9 3.91 -1.8956 3.91571 C -1.88 3.92 -1.87 3.93 -1.85786 3.93038 C -1.85 3.94 -1.83 3.94 -1.81858 3.94426 C -1.81 3.95 -1.79 3.95 -1.77781 3.95735 C -1.76 3.96 -1.75 3.97 -1.73561 3.96964 C -1.68 3.99 -1.62 4 -1.55385 4.01072 C -1.43 4.03 -1.29 4.05 -1.14583 4.05251 C -0.41 4.06 -0.08 3.89 -0.00497 3.81798 C 0.08 3.75 0.18 3.69 0.20851 3.44326" />
    <path d="M 0.20851 3.06111 L 0.20851 3.44326" />
    <path d="M 1.77074 0.75814 C 1.78 0.76 1.79 0.75 1.80115 0.74866 C 1.81 0.74 1.83 0.74 1.84146 0.73498 C 1.85 0.73 1.87 0.73 1.88023 0.7205 C 1.89 0.72 1.91 0.71 1.91741 0.7052 C 1.93 0.7 1.94 0.69 1.95295 0.6891 C 1.96 0.68 1.98 0.68 1.98682 0.67218 C 2 0.67 2.01 0.66 2.01897 0.65446 C 2.03 0.65 2.04 0.64 2.04938 0.63594 C 2.06 0.63 2.07 0.62 2.07801 0.61663 C 2.09 0.61 2.1 0.6 2.10643 0.59529 C 2.12 0.59 2.12 0.58 2.13282 0.5731 C 2.14 0.57 2.15 0.56 2.15715 0.5501 C 2.16 0.54 2.17 0.53 2.17944 0.52633 C 2.19 0.52 2.19 0.51 2.20092 0.50023 C 2.21 0.49 2.21 0.48 2.22009 0.47336 C 2.23 0.46 2.23 0.46 2.23683 0.44605 C 2.24 0.44 2.25 0.43 2.25133 0.41811 C 2.26 0.41 2.26 0.4 2.2636 0.38962 C 2.27 0.38 2.27 0.37 2.27363 0.36067 C 2.28 0.35 2.28 0.34 2.28144 0.33132 C 2.28 0.32 2.29 0.31 2.28702 0.30168 C 2.29 0.29 2.29 0.28 2.29037 0.27185 C 2.29 0.26 2.29 0.25 2.29149 0.24191" />
    <path d="M 1.25 1.55848 C 1.26 1.56 1.27 1.55 1.2804 1.549 C 1.29 1.54 1.31 1.54 1.32072 1.53532 C 1.33 1.53 1.35 1.53 1.35949 1.52084 C 1.37 1.52 1.38 1.51 1.39667 1.50554 C 1.41 1.5 1.42 1.49 1.43221 1.48944 C 1.44 1.48 1.46 1.48 1.46608 1.47252 C 1.48 1.47 1.49 1.46 1.49823 1.4548 C 1.51 1.45 1.52 1.44 1.52863 1.43628 C 1.54 1.43 1.55 1.42 1.55726 1.41697 C 1.57 1.41 1.58 1.4 1.58569 1.39563 C 1.59 1.39 1.6 1.38 1.61207 1.37344 C 1.62 1.37 1.63 1.36 1.63641 1.35044 C 1.64 1.34 1.65 1.33 1.65869 1.32667 C 1.67 1.32 1.67 1.31 1.68017 1.30057 C 1.69 1.29 1.69 1.28 1.69935 1.2737 C 1.71 1.26 1.71 1.26 1.71609 1.24639 C 1.72 1.24 1.73 1.23 1.73059 1.21845 C 1.74 1.21 1.74 1.2 1.74285 1.18996 C 1.75 1.18 1.75 1.17 1.75289 1.161 C 1.76 1.15 1.76 1.14 1.7607 1.13166 C 1.76 1.12 1.76 1.11 1.76628 1.10202 C 1.77 1.09 1.77 1.08 1.76963 1.07218 C 1.77 1.06 1.77 1.05 1.77074 1.04225" />
    <path d="M 0.72926 2.35881 C 0.74 2.36 0.75 2.35 0.75966 2.34934 C 0.77 2.34 0.79 2.34 0.79997 2.33566 C 0.81 2.33 0.83 2.33 0.83874 2.32117 C 0.85 2.32 0.86 2.31 0.87592 2.30588 C 0.89 2.3 0.9 2.3 0.91147 2.28977 C 0.92 2.28 0.93 2.28 0.94533 2.27286 C 0.96 2.27 0.97 2.26 0.97748 2.25514 C 0.99 2.25 1 2.24 1.00789 2.23662 C 1.02 2.23 1.03 2.22 1.03652 2.21731 C 1.05 2.21 1.06 2.2 1.06494 2.19596 C 1.07 2.19 1.08 2.18 1.09133 2.17378 C 1.1 2.17 1.11 2.16 1.11566 2.15078 C 1.12 2.14 1.13 2.14 1.13795 2.12701 C 1.15 2.12 1.15 2.11 1.15943 2.10091 C 1.17 2.09 1.17 2.08 1.17861 2.07404 C 1.18 2.07 1.19 2.06 1.19534 2.04673 C 1.2 2.04 1.21 2.03 1.20984 2.01879 C 1.21 2.01 1.22 2 1.22211 1.9903 C 1.23 1.98 1.23 1.97 1.23214 1.96134 C 1.24 1.95 1.24 1.94 1.23995 1.932 C 1.24 1.92 1.24 1.91 1.24553 1.90236 C 1.25 1.89 1.25 1.88 1.24888 1.87252 C 1.25 1.86 1.25 1.85 1.25 1.84259" />
    <path d="M 0.20851 3.15915 C 0.22 3.16 0.23 3.15 0.23891 3.14967 C 0.25 3.15 0.27 3.14 0.27923 3.136 C 0.29 3.13 0.31 3.13 0.318 3.12151 C 0.33 3.12 0.34 3.11 0.35518 3.10622 C 0.37 3.1 0.38 3.1 0.39072 3.09011 C 0.4 3.08 0.41 3.08 0.42459 3.0732 C 0.44 3.07 0.45 3.06 0.45674 3.05548 C 0.47 3.05 0.48 3.04 0.48714 3.03696 C 0.5 3.03 0.51 3.02 0.51577 3.01764 C 0.53 3.01 0.54 3 0.5442 2.9963 C 0.55 2.99 0.56 2.98 0.57058 2.97411 C 0.58 2.97 0.59 2.96 0.59492 2.95112 C 0.6 2.94 0.61 2.94 0.6172 2.92735 C 0.62 2.92 0.63 2.91 0.63868 2.90125 C 0.65 2.89 0.65 2.88 0.65786 2.87437 C 0.66 2.87 0.67 2.86 0.6746 2.84706 C 0.68 2.84 0.68 2.83 0.6891 2.81913 C 0.69 2.81 0.7 2.8 0.70136 2.79064 C 0.71 2.78 0.71 2.77 0.7114 2.76168 C 0.71 2.75 0.72 2.74 0.71921 2.73233 C 0.72 2.72 0.72 2.71 0.72479 2.7027 C 0.73 2.69 0.73 2.68 0.72814 2.67286 C 0.73 2.66 0.73 2.65 0.72926 2.64292" />
</svg>